<?xml version="1.0" encoding="UTF-8"?>
<svg version="1.1" xmlns="http://www.w3.org/2000/svg" width="512" height="512">
<path d="M0 0 C14.13487557 -0.67556391 26.28458807 4.8052535 37.125 13.4609375 C48.13806539 23.67096687 52.53837218 37.87142419 53.13134766 52.4987793 C53.17206795 54.3023912 53.20355471 56.10623145 53.2265625 57.91015625 C53.24592865 58.8712178 53.2652948 59.83227936 53.2852478 60.82246399 C53.34432299 63.8477024 53.39113654 66.87298038 53.4375 69.8984375 C53.47574632 71.9681142 53.51480174 74.03777612 53.5546875 76.10742188 C53.64996382 81.14180489 53.73425563 86.17626215 53.8125 91.2109375 C54.50956055 90.4055957 54.50956055 90.4055957 55.22070312 89.58398438 C55.83880859 88.87306641 56.45691406 88.16214844 57.09375 87.4296875 C57.70283203 86.72779297 58.31191406 86.02589844 58.93945312 85.30273438 C60.67197128 83.36787833 62.457841 81.52805842 64.3125 79.7109375 C67.2579073 76.81094397 69.96713709 73.77467319 72.6640625 70.64453125 C75.48870023 67.44498706 78.39997736 64.33038088 81.3125 61.2109375 C85.28679627 56.95108648 89.21286119 52.66850087 93.015625 48.25390625 C94.89377211 46.11853464 96.81984646 44.03117999 98.75317383 41.94580078 C102.74292152 37.64162702 106.59452272 33.3084797 110.25 28.7109375 C120.66370275 15.86117214 132.11124979 3.93354475 149.39404297 1.90844727 C151.99980298 1.7753587 154.57860437 1.74301165 157.1875 1.7734375 C158.1043457 1.78101074 159.02119141 1.78858398 159.96582031 1.79638672 C171.22972856 2.06931835 179.92836245 5.30659839 188.8125 12.2109375 C189.50085938 12.73558594 190.18921875 13.26023437 190.8984375 13.80078125 C196.30341574 18.20138614 200.05518592 23.37535907 203.8125 29.2109375 C204.23660156 28.49808594 204.66070312 27.78523438 205.09765625 27.05078125 C212.57192325 14.84554964 221.66739797 6.45218415 235.48046875 2.0390625 C250.1097529 -1.34306208 264.02720591 -0.34698029 277.1796875 7.41796875 C288.99036647 15.46114627 296.56588441 25.20886721 299.8125 39.2109375 C301.40613368 48.71539746 300.89024722 58.48600701 300.8125 68.0859375 C300.78586434 71.41666339 300.76592728 74.74733269 300.75 78.078125 C300.74170166 78.83543915 300.73340332 79.5927533 300.72485352 80.37301636 C300.7088891 83.79567973 300.72506108 86.94112856 301.8125 90.2109375 C306.64220005 85.47980275 311.3326605 80.7061242 315.734375 75.57421875 C318.53094788 72.3939056 321.42220174 69.30597031 324.3125 66.2109375 C329.35554115 60.80931302 329.35554115 60.80931302 334.25 55.2734375 C337.66055282 51.31582859 341.23945739 47.52113306 344.8125 43.7109375 C349.0051284 39.23887331 353.16564654 34.75727985 357.1640625 30.109375 C359.95605387 26.89395366 362.83404135 23.75563715 365.69921875 20.60546875 C367.84777952 18.23104104 367.84777952 18.23104104 369.765625 15.6328125 C377.08280381 6.97508185 389.18458268 2.4997076 400.1875 1.3359375 C414.37275921 0.66444594 427.80118321 4.10123782 438.7890625 13.34375 C448.13931911 21.97197907 455.08715124 33.05458692 456.11328125 46.0078125 C456.13758948 54.20778723 455.77608272 61.4497516 452.8125 69.2109375 C452.51859375 70.00371094 452.2246875 70.79648438 451.921875 71.61328125 C446.45912976 84.18982533 434.95418253 94.23362756 425.7109375 104.09765625 C422.92109911 107.08091155 420.21922409 110.13044085 417.55078125 113.22265625 C415.33993511 115.75146678 413.07653557 118.22966314 410.8125 120.7109375 C407.98672616 123.80825717 405.18031221 126.914979 402.4375 130.0859375 C399.30226036 133.69666372 396.06338871 137.20476428 392.8125 140.7109375 C388.39652491 145.47539891 384.04334681 150.28033231 379.8125 155.2109375 C379.23371094 155.88382813 378.65492188 156.55671875 378.05859375 157.25 C376.64069513 158.90147357 375.22620281 160.55587079 373.8125 162.2109375 C377.41909919 168.01668254 381.44790453 173.28620496 385.86572266 178.49853516 C390.21493755 183.6446509 394.29687164 188.98535362 398.38183594 194.34179688 C405.91526001 204.18409972 413.56256576 213.93534896 421.33666992 223.58837891 C425.70600719 229.03388257 429.94049254 234.57800209 434.15283203 240.14550781 C437.24221599 244.21417879 440.42479603 248.14589261 443.75 252.0234375 C454.74460291 265.30184579 457.15783404 279.50952724 455.8125 296.2109375 C453.54492739 308.6757977 446.17814788 319.97482985 435.8125 327.2109375 C422.42148236 335.06244958 409.72921256 338.40940858 394.0859375 335.5234375 C379.25873921 331.64704579 369.93786595 323.90272739 361.125 311.7109375 C357.08599796 306.22339955 352.96814893 300.82483529 348.6875 295.5234375 C344.56490159 290.41245377 340.51134089 285.25849271 336.52197266 280.04296875 C333.12298776 275.60281685 329.67642118 271.20186087 326.2121582 266.8125 C323.51442872 263.39029695 320.83802969 259.95291746 318.1796875 256.5 C317.55868164 255.69522217 316.93767578 254.89044434 316.29785156 254.0612793 C315.08595144 252.4894671 313.87682301 250.91551273 312.67089844 249.33911133 C309.592842 245.35227426 306.47337024 241.67299644 302.8125 238.2109375 C301.13249852 239.89093898 301.67043923 241.96975915 301.65478516 244.2746582 C301.64452301 245.35701248 301.63426086 246.43936676 301.62368774 247.55451965 C301.61273575 249.32770821 301.61273575 249.32770821 301.6015625 251.13671875 C301.57346498 253.63086561 301.54480037 256.12500614 301.515625 258.61914062 C301.4745602 262.55769478 301.43768405 266.49613432 301.41113281 270.43481445 C301.38330571 274.23153407 301.33740057 278.02771191 301.2890625 281.82421875 C301.28580963 282.98407791 301.28255676 284.14393707 301.27920532 285.33894348 C301.04790044 300.93514975 296.86186542 312.53570456 286.203125 323.91796875 C282.71529403 327.26332297 279.07263457 329.93623602 274.8125 332.2109375 C273.94347046 332.71850586 273.94347046 332.71850586 273.05688477 333.23632812 C265.91106603 336.97957533 258.67261464 337.00557993 250.75 336.9609375 C250.06096588 336.96051453 249.37193176 336.96009155 248.66201782 336.95965576 C233.71039064 336.8678893 224.10808759 333.49674266 213.0625 323.1484375 C204.8125 314.13454861 204.8125 314.13454861 204.8125 309.2109375 C204.1525 309.2109375 203.4925 309.2109375 202.8125 309.2109375 C202.56628906 309.93410156 202.32007813 310.65726562 202.06640625 311.40234375 C198.3460192 319.73554714 190.57352456 325.79590027 182.8125 330.2109375 C182.14347656 330.60023438 181.47445312 330.98953125 180.78515625 331.390625 C169.3626146 337.58820205 155.23264997 338.1017957 142.875 334.5234375 C130.27568324 330.07478985 121.40140386 322.95249257 113.5625 312.2109375 C112.43511523 310.70068596 111.30617671 309.19159317 110.17578125 307.68359375 C109.61455566 306.93223145 109.05333008 306.18086914 108.47509766 305.40673828 C105.96938684 302.09743387 103.36358854 298.87273786 100.75 295.6484375 C96.67599904 290.60484969 92.73679447 285.48110465 88.875 280.2734375 C84.33043334 274.14918481 79.61372269 268.19879095 74.76049805 262.31665039 C71.82598821 258.74414608 68.97441198 255.1297681 66.20703125 251.42578125 C65.61784912 250.63872803 65.02866699 249.8516748 64.42163086 249.04077148 C63.28517344 247.51392183 62.1567517 245.98105061 61.03735352 244.44165039 C60.27249634 243.41479126 60.27249634 243.41479126 59.4921875 242.3671875 C59.04601074 241.75681641 58.59983398 241.14644531 58.14013672 240.51757812 C56.76660241 238.86021319 56.76660241 238.86021319 53.8125 239.2109375 C53.80885437 239.86667252 53.80520874 240.52240753 53.80145264 241.19801331 C53.75926805 248.0941874 53.68967698 254.98971801 53.60498047 261.88549805 C53.5769543 264.45053637 53.55564967 267.01565812 53.54150391 269.58081055 C53.42097338 290.2116182 53.252537 308.05312032 38.5 324.0234375 C28.53171048 333.3645088 17.90501458 336.73994267 4.58911133 336.65698242 C2.51476845 336.64849791 0.4432107 336.67724217 -1.63085938 336.70898438 C-14.41645059 336.77787401 -22.64320746 333.5599635 -32.1875 325.2109375 C-32.80496094 324.71078125 -33.42242187 324.210625 -34.05859375 323.6953125 C-43.65638924 315.23044164 -46.89144095 303.47309291 -48.1875 291.2109375 C-48.42300431 285.47764342 -48.37819727 279.75881452 -48.31738281 274.0222168 C-48.30726815 272.31865122 -48.2982652 270.61507874 -48.29027176 268.91150188 C-48.27215067 265.25447433 -48.24900874 261.5975252 -48.22267151 257.94054794 C-48.18374823 252.15693683 -48.17257373 246.37348128 -48.16833496 240.5897522 C-48.1675887 239.60402287 -48.16684244 238.61829353 -48.16607356 237.60269362 C-48.16462007 235.57493809 -48.16321772 233.54718253 -48.16186476 231.51942694 C-48.14302845 209.78433546 -48.07428064 188.04927811 -48.00359726 166.31430531 C-47.96358014 153.86863221 -47.93125263 141.4230258 -47.91650391 128.97729492 C-47.90348442 118.00408348 -47.87655758 107.03100968 -47.83288693 96.05787581 C-47.81036921 90.28333835 -47.79458393 84.50896982 -47.79561615 78.73438454 C-47.79636291 73.32886234 -47.77840563 67.9237193 -47.74633217 62.51829529 C-47.73785526 60.5447125 -47.73606813 58.57108709 -47.74169731 56.59749413 C-47.7823479 40.15215966 -45.69541028 27.64691073 -34.2265625 15.05859375 C-24.66890766 5.80294659 -13.06470679 1.25981101 0 0 Z M198.8125 80.2109375 C196.90341443 82.18626895 195.03734657 84.18121389 193.1875 86.2109375 C192.63771484 86.81035156 192.08792969 87.40976563 191.52148438 88.02734375 C188.19789466 91.66092589 184.93245265 95.33811419 181.7109375 99.0625 C178.65116669 102.52520359 175.4983645 105.90157391 172.35766602 109.29077148 C168.56598353 113.3853626 164.82154537 117.51935328 161.09765625 121.67578125 C158.47976871 124.58007016 155.83496797 127.45864525 153.1875 130.3359375 C150.21025181 133.57304779 147.25296979 136.8223167 144.375 140.1484375 C140.68575529 144.41216313 136.83947383 148.52875553 132.98657227 152.64428711 C128.02330429 157.18028554 128.02330429 157.18028554 125.81640625 163.05859375 C127.31208427 166.29043136 129.5108758 168.91080699 131.75 171.6484375 C132.76109203 172.90831246 133.77149453 174.16874107 134.78125 175.4296875 C135.29171875 176.06390625 135.8021875 176.698125 136.328125 177.3515625 C138.51096205 180.08585312 140.62875824 182.86602948 142.75 185.6484375 C146.37495108 190.38719632 150.07460963 195.0608451 153.8125 199.7109375 C157.55041913 204.36106568 161.24874791 209.03564616 164.875 213.7734375 C173.84337052 225.48646176 183.01087189 237.03155878 192.36230469 248.44140625 C193.33525909 249.62860718 194.30462391 250.81875832 195.27050781 252.01171875 C196.42886205 253.42997613 197.61760942 254.82332263 198.8125 256.2109375 C199.1425 256.2109375 199.4725 256.2109375 199.8125 256.2109375 C199.8125 198.1309375 199.8125 140.0509375 199.8125 80.2109375 C199.4825 80.2109375 199.1525 80.2109375 198.8125 80.2109375 Z " fill="#707173" transform="translate(54.1875,90.7890625)"/>
<path d="M0 0 C1.0725 0.556875 2.145 1.11375 3.25 1.6875 C8.97388477 6.50076674 13.51840975 13.46589488 14.17941666 21.06173325 C14.24543171 23.51071233 14.24737431 25.95205875 14.22705078 28.40185547 C14.22734283 29.32932083 14.22763489 30.25678619 14.22793579 31.21235657 C14.22654751 34.26406355 14.21100987 37.3155234 14.1953125 40.3671875 C14.19158059 42.48853421 14.18873446 44.60988264 14.18673706 46.73123169 C14.17911465 52.30432933 14.15947806 57.8773221 14.1373291 63.45037842 C14.11684071 69.14138368 14.10772894 74.83240595 14.09765625 80.5234375 C14.0762309 91.68233764 14.04211171 102.84116009 14 114 C15.1446875 113.01 15.1446875 113.01 16.3125 112 C19 110 19 110 22 110 C22 108.68 22 107.36 22 106 C22.66 106 23.32 106 24 106 C24 105.34 24 104.68 24 104 C24.66 104 25.32 104 26 104 C26 103.34 26 102.68 26 102 C26.66 102 27.32 102 28 102 C28 101.34 28 100.68 28 100 C28.66 100 29.32 100 30 100 C30.495 98.515 30.495 98.515 31 97 C31.66 97 32.32 97 33 97 C33.2578125 96.43796875 33.515625 95.8759375 33.78125 95.296875 C35.14169777 92.73295421 36.72788962 90.54773635 38.5 88.25 C39.1084375 87.45078125 39.716875 86.6515625 40.34375 85.828125 C40.8903125 85.22484375 41.436875 84.6215625 42 84 C42.66 84 43.32 84 44 84 C44 83.34 44 82.68 44 82 C44.66 82 45.32 82 46 82 C46 81.34 46 80.68 46 80 C46.66 80 47.32 80 48 80 C48 79.34 48 78.68 48 78 C48.66 78 49.32 78 50 78 C50.2475 77.38125 50.495 76.7625 50.75 76.125 C52.23740369 73.59641373 53.43678009 73.28160996 56 72 C57.18330183 70.13355094 57.18330183 70.13355094 58 68 C58.66666667 66.66666667 59.33333333 65.33333333 60 64 C60.66 64 61.32 64 62 64 C62 63.34 62 62.68 62 62 C63.61578794 60.28396244 65.29418838 58.62657993 67 57 C73.73969967 50.42973412 80.15384528 43.89595488 85.96484375 36.47265625 C88 34 88 34 90.69140625 31.37109375 C93.19325066 29.14562997 93.19325066 29.14562997 94 26 C94.66 26 95.32 26 96 26 C96 25.34 96 24.68 96 24 C97.32 24 98.64 24 100 24 C100.37125 22.9171875 100.37125 22.9171875 100.75 21.8125 C102.12269592 18.72393418 103.72353296 16.48988582 106 14 C106.66 14 107.32 14 108 14 C108.24621094 13.4328125 108.49242187 12.865625 108.74609375 12.28125 C112.22792411 5.94670505 118.51908783 0.2034906 125.2734375 -2.421875 C133.2492863 -4.11302919 142.05076572 -3.52061558 150 -2 C150 -1.34 150 -0.68 150 0 C150.61875 0.144375 151.2375 0.28875 151.875 0.4375 C154 1 154 1 156 2 C156 2.66 156 3.32 156 4 C157.32 4 158.64 4 160 4 C160 4.66 160 5.32 160 6 C160.66 6 161.32 6 162 6 C162 6.66 162 7.32 162 8 C162.66 8 163.32 8 164 8 C164 8.66 164 9.32 164 10 C164.66 10 165.32 10 166 10 C171.15343319 19.9847768 171.51935005 29.89186923 168.3125 40.625 C166.67695057 45.01761846 165.13458102 47.54160047 161 50 C160.67 50.66 160.34 51.32 160 52 C159.34 52 158.68 52 158 52 C158 52.66 158 53.32 158 54 C157.34 54 156.68 54 156 54 C156 55.32 156 56.64 156 58 C154.3203125 59.81640625 154.3203125 59.81640625 152.125 61.5625 C149.49739528 63.6768271 147.89902095 65.15146857 146 68 C145.34 68 144.68 68 144 68 C144 68.66 144 69.32 144 70 C143.34 70 142.68 70 142 70 C141.938125 70.556875 141.87625 71.11375 141.8125 71.6875 C140.6552513 74.98120783 138.51681071 76.59504754 136 79 C134.41773384 80.8614896 132.86756448 82.74435953 131.33203125 84.64453125 C130.89246094 85.09183594 130.45289063 85.53914063 130 86 C129.34 86 128.68 86 128 86 C128 86.66 128 87.32 128 88 C127.34 88 126.68 88 126 88 C126 88.66 126 89.32 126 90 C125.34 90 124.68 90 124 90 C124 90.66 124 91.32 124 92 C123.34 92 122.68 92 122 92 C122 93.32 122 94.64 122 96 C120.125 98.25 120.125 98.25 118 100 C117.34 100 116.68 100 116 100 C116 100.66 116 101.32 116 102 C115.34 102 114.68 102 114 102 C114 102.66 114 103.32 114 104 C113.34 104 112.68 104 112 104 C112 104.66 112 105.32 112 106 C111.34 106 110.68 106 110 106 C110 106.66 110 107.32 110 108 C109.34 108 108.68 108 108 108 C108 108.66 108 109.32 108 110 C107.34 110 106.68 110 106 110 C105.01 111.98 105.01 111.98 104 114 C103.34 114 102.68 114 102 114 C102 115.32 102 116.64 102 118 C101.34 118 100.68 118 100 118 C100 118.66 100 119.32 100 120 C99.34 120 98.68 120 98 120 C98 120.66 98 121.32 98 122 C97.34 122 96.68 122 96 122 C96 122.66 96 123.32 96 124 C95.34 124 94.68 124 94 124 C94 124.66 94 125.32 94 126 C93.34 126 92.68 126 92 126 C91.7525 126.61875 91.505 127.2375 91.25 127.875 C90 130 90 130 87.9375 131 C85.82932634 131.81147775 85.82932634 131.81147775 85.3125 133.875 C85.209375 134.57625 85.10625 135.2775 85 136 C84.814375 136.70125 84.62875 137.4025 84.4375 138.125 C83.92425679 140.00371953 83.92425679 140.00371953 84 142 C84.66 142 85.32 142 86 142 C90 147.41176471 90 147.41176471 90 150 C90.66 150 91.32 150 92 150 C96 155.41176471 96 155.41176471 96 158 C96.66 158 97.32 158 98 158 C101.24646068 160.7053839 103.02077013 163.68803922 104.9921875 167.3359375 C106.03019272 169.19914774 106.03019272 169.19914774 108.125 171.125 C110.26144795 173.26144795 111.05274194 175.15822581 112 178 C112.66 178 113.32 178 114 178 C116.53906064 180.61373889 117.92256852 182.12889581 118.25 185.8125 C118.1675 186.534375 118.085 187.25625 118 188 C118.66 188 119.32 188 120 188 C120 188.66 120 189.32 120 190 C120.99 190 121.98 190 123 190 C123.33 191.32 123.66 192.64 124 194 C125.32 194 126.64 194 128 194 C128 195.32 128 196.64 128 198 C128.66 198 129.32 198 130 198 C130 199.98 130 201.96 130 204 C131.32 204 132.64 204 134 204 C134.66 205.98 135.32 207.96 136 210 C136.66 210 137.32 210 138 210 C138 210.66 138 211.32 138 212 C139.32 212.66 140.64 213.32 142 214 C142 214.66 142 215.32 142 216 C142.66 216 143.32 216 144 216 C144 217.32 144 218.64 144 220 C144.61875 220.2475 145.2375 220.495 145.875 220.75 C148.35068687 222.20628639 148.95125002 223.37812506 150 226 C150.66 226 151.32 226 152 226 C153.02137457 227.65365406 154.01612294 229.32376502 155 231 C155.88058287 232.05459026 156.77697125 233.09615395 157.6875 234.125 C160 237 160 237 160 240 C160.60457031 240.23847656 161.20914063 240.47695313 161.83203125 240.72265625 C164.48976119 242.288562 165.27345385 243.72092554 166.6875 246.4375 C167.10386719 247.21996094 167.52023438 248.00242187 167.94921875 248.80859375 C169.67655418 252.410955 170.12047701 255.15747707 170.09765625 259.10546875 C170.09443359 260.08837891 170.09121094 261.07128906 170.08789062 262.08398438 C170.07951172 263.10814453 170.07113281 264.13230469 170.0625 265.1875 C170.05798828 266.22326172 170.05347656 267.25902344 170.04882812 268.32617188 C170.0370401 270.88417266 170.02058515 273.44205733 170 276 C169.34 276 168.68 276 168 276 C168 277.32 168 278.64 168 280 C167.01 280.33 166.02 280.66 165 281 C163.69768672 282.49584916 163.69768672 282.49584916 162.5625 284.3125 C158.65991299 289.93038337 156.25090015 292.18946283 149.51855469 293.58764648 C145.50640289 294.24454105 141.56012896 294.38323055 137.5 294.375 C136.66774902 294.37338867 135.83549805 294.37177734 134.97802734 294.37011719 C126.50592607 294.20037562 120.19187651 291.99213856 114 286 C114 285.34 114 284.68 114 284 C113.34 284 112.68 284 112 284 C110.4921875 282.20703125 110.4921875 282.20703125 108.875 279.8125 C108.33617187 279.03519531 107.79734375 278.25789063 107.2421875 277.45703125 C105.86295069 274.72891819 105.75375293 273.01385001 106 270 C104.68 270 103.36 270 102 270 C101.34 268.02 100.68 266.04 100 264 C99.34 264 98.68 264 98 264 C98 263.34 98 262.68 98 262 C97.34 262 96.68 262 96 262 C96 261.34 96 260.68 96 260 C94.68 259.34 93.36 258.68 92 258 C92 256.68 92 255.36 92 254 C91.01 254 90.02 254 89 254 C88.67 252.68 88.34 251.36 88 250 C87.34 250 86.68 250 86 250 C86 249.34 86 248.68 86 248 C84.68 248 83.36 248 82 248 C82 246.68 82 245.36 82 244 C81.34 244 80.68 244 80 244 C80 243.34 80 242.68 80 242 C79.34 242 78.68 242 78 242 C78 241.34 78 240.68 78 240 C77.34 240 76.68 240 76 240 C75.71125 239.0925 75.4225 238.185 75.125 237.25 C74.23468224 234.67797092 73.28505587 232.38653234 72 230 C71.34 230 70.68 230 70 230 C68.21694476 227.36107824 67.00940379 225.02821137 66 222 C65.34 222 64.68 222 64 222 C60 216.58823529 60 216.58823529 60 214 C59.34 214 58.68 214 58 214 C54 209.64705882 54 209.64705882 54 206 C53.34 206 52.68 206 52 206 C48 201.64705882 48 201.64705882 48 198 C47.34 198 46.68 198 46 198 C46 197.34 46 196.68 46 196 C45.34 196 44.68 196 44 196 C44 195.34 44 194.68 44 194 C43.34 194 42.68 194 42 194 C41.34 193.01 40.68 192.02 40 191 C37.79274927 190.63637182 37.79274927 190.63637182 35.375 190.8125 C34.55773437 190.83957031 33.74046875 190.86664063 32.8984375 190.89453125 C32.27195312 190.92933594 31.64546875 190.96414063 31 191 C30.731875 191.639375 30.46375 192.27875 30.1875 192.9375 C29 195 29 195 26 196 C24.79117904 198.00016466 24.79117904 198.00016466 24 200 C23.34 200 22.68 200 22 200 C21.773125 200.5775 21.54625 201.155 21.3125 201.75 C20 204 20 204 17.45918274 205.75653076 C14.76423741 207.78521158 14.76423741 207.78521158 14.36076355 210.83477783 C14.35410172 211.92731873 14.34743988 213.01985962 14.34057617 214.14550781 C14.31111153 216.00698456 14.31111153 216.00698456 14.28105164 217.90606689 C14.28449481 219.25508772 14.28847986 220.60410725 14.29296875 221.953125 C14.27985015 223.33748548 14.2645454 224.72182683 14.24714661 226.10614014 C14.20730104 229.74269713 14.19710662 233.37875339 14.19311523 237.01550293 C14.18378271 240.72923976 14.14636861 244.44268249 14.11132812 248.15625 C14.0467572 255.43750249 14.01351335 262.71845475 14 270 C13.34 270 12.68 270 12 270 C12.12375 271.11375 12.2475 272.2275 12.375 273.375 C12.33336087 279.24611767 9.72758474 283.59467259 6 288 C-1.14980491 293.62266211 -8.65395419 296.39242538 -17.75 296.375 C-18.44867188 296.37628906 -19.14734375 296.37757813 -19.8671875 296.37890625 C-25.83003673 296.25788901 -30.72651296 294.83956994 -36 292 C-36 291.34 -36 290.68 -36 290 C-36.66 290 -37.32 290 -38 290 C-38 289.34 -38 288.68 -38 288 C-38.66 288 -39.32 288 -40 288 C-40 287.34 -40 286.68 -40 286 C-40.66 286 -41.32 286 -42 286 C-42 284.68 -42 283.36 -42 282 C-42.66 282 -43.32 282 -44 282 C-44 281.34 -44 280.68 -44 280 C-45.32 280 -46.64 280 -48 280 C-50.27839009 274.53120644 -50.28369401 269.59757823 -50.26069641 263.77886963 C-50.26452196 262.75174354 -50.26834751 261.72461746 -50.27228898 260.66636634 C-50.28260492 257.22576764 -50.27862941 253.78533625 -50.2746582 250.34472656 C-50.27900551 247.87733811 -50.28418872 245.40995101 -50.29014587 242.94256592 C-50.30215469 236.93617746 -50.30468723 230.92985471 -50.30234561 224.92346027 C-50.30056121 220.03905381 -50.30231473 215.15466089 -50.30657005 210.27025604 C-50.30716524 209.57456518 -50.30776043 208.87887431 -50.30837366 208.16210191 C-50.30958544 206.74868442 -50.31079957 205.33526694 -50.31201603 203.92184946 C-50.32288977 190.66960914 -50.32073018 177.41739427 -50.31463119 164.16515252 C-50.30946518 152.0539869 -50.32070939 139.94290179 -50.33972941 127.83175209 C-50.35912515 115.38554966 -50.36736057 102.93938528 -50.36360615 90.49316764 C-50.36169636 83.50984534 -50.3641598 76.5265915 -50.37832069 69.54328156 C-50.39150817 62.9736394 -50.38895083 56.4041314 -50.37590981 49.83448029 C-50.3735452 47.42628932 -50.37627451 45.01808702 -50.38453293 42.60990906 C-50.39501183 39.31610841 -50.38688994 36.02284651 -50.3742218 32.72906494 C-50.38159609 31.7817671 -50.38897037 30.83446927 -50.39656812 29.85846543 C-50.32693164 21.21953481 -48.69760257 12.74716094 -43 6 C-30.86217249 -5.13033985 -14.91124542 -8.19832842 0 0 Z " fill="#3B3DAA" transform="translate(74,114)"/>
<path d="M0 0 C0.82242188 0.01353516 1.64484375 0.02707031 2.4921875 0.04101562 C4.49508221 0.07594984 6.49763356 0.12973943 8.5 0.1875 C8.5 0.8475 8.5 1.5075 8.5 2.1875 C10.48 2.5175 12.46 2.8475 14.5 3.1875 C14.5 3.8475 14.5 4.5075 14.5 5.1875 C16.48 5.8475 18.46 6.5075 20.5 7.1875 C20.5 8.5075 20.5 9.8275 20.5 11.1875 C21.16 11.1875 21.82 11.1875 22.5 11.1875 C22.5 11.8475 22.5 12.5075 22.5 13.1875 C23.49 13.1875 24.48 13.1875 25.5 13.1875 C31.25334144 19.95613699 30.64993532 28.12022613 30.61352539 36.54101562 C30.61367142 37.43951233 30.61381744 38.33800903 30.6139679 39.26373291 C30.61327621 42.20709727 30.60551894 45.15039682 30.59765625 48.09375 C30.59578942 50.14497849 30.59436677 52.19620743 30.59336853 54.24743652 C30.5895642 59.62647753 30.57975183 65.00549122 30.56866455 70.38452148 C30.55840549 75.8813439 30.5538613 81.37817076 30.54882812 86.875 C30.53812758 97.64584529 30.52107635 108.41667037 30.5 119.1875 C31.49 119.1875 32.48 119.1875 33.5 119.1875 C33.5 118.1975 33.5 117.2075 33.5 116.1875 C34.875 114.5 34.875 114.5 36.5 113.1875 C37.16 113.1875 37.82 113.1875 38.5 113.1875 C38.5 112.5275 38.5 111.8675 38.5 111.1875 C39.16 111.1875 39.82 111.1875 40.5 111.1875 C40.5 110.5275 40.5 109.8675 40.5 109.1875 C41.16 109.1875 41.82 109.1875 42.5 109.1875 C42.5 108.5275 42.5 107.8675 42.5 107.1875 C43.16 107.1875 43.82 107.1875 44.5 107.1875 C44.5 106.5275 44.5 105.8675 44.5 105.1875 C45.16 105.1875 45.82 105.1875 46.5 105.1875 C46.7578125 104.61515625 47.015625 104.0428125 47.28125 103.453125 C48.61365942 100.97621005 50.15056118 99.0533834 52 96.9375 C52.6084375 96.23109375 53.216875 95.5246875 53.84375 94.796875 C55.5 93.1875 55.5 93.1875 57.5 93.1875 C57.76039063 92.61 58.02078125 92.0325 58.2890625 91.4375 C61.14806248 86.12529358 66.00952096 81.17903692 70.5 77.1875 C71.16 77.1875 71.82 77.1875 72.5 77.1875 C72.9021875 76.2903125 72.9021875 76.2903125 73.3125 75.375 C74.49308761 73.20023336 75.76816512 71.91933488 77.5 70.1875 C77.995 68.7025 77.995 68.7025 78.5 67.1875 C79.16 67.1875 79.82 67.1875 80.5 67.1875 C80.5 66.5275 80.5 65.8675 80.5 65.1875 C81.16 65.1875 81.82 65.1875 82.5 65.1875 C82.5 64.5275 82.5 63.8675 82.5 63.1875 C83.16 63.1875 83.82 63.1875 84.5 63.1875 C84.5 62.5275 84.5 61.8675 84.5 61.1875 C85.16 61.1875 85.82 61.1875 86.5 61.1875 C86.5 60.5275 86.5 59.8675 86.5 59.1875 C87.82 59.1875 89.14 59.1875 90.5 59.1875 C90.5928125 58.1665625 90.5928125 58.1665625 90.6875 57.125 C91.76401385 53.23298838 93.75665032 50.15305246 96.5 47.1875 C97.16 47.1875 97.82 47.1875 98.5 47.1875 C98.5 46.5275 98.5 45.8675 98.5 45.1875 C99.16 45.1875 99.82 45.1875 100.5 45.1875 C100.5 44.5275 100.5 43.8675 100.5 43.1875 C101.16 43.1875 101.82 43.1875 102.5 43.1875 C102.5 42.5275 102.5 41.8675 102.5 41.1875 C103.16 41.1875 103.82 41.1875 104.5 41.1875 C104.5 40.5275 104.5 39.8675 104.5 39.1875 C106.375 37.0625 106.375 37.0625 108.5 35.1875 C109.16 35.1875 109.82 35.1875 110.5 35.1875 C110.73332031 34.63578125 110.96664062 34.0840625 111.20703125 33.515625 C112.84019284 30.57494733 114.89339207 28.39672749 117.1875 25.9375 C120.23822598 22.64576832 123.26195793 19.34176714 126.1875 15.9375 C129.01539295 12.6729965 132.00855501 9.62992455 135.1171875 6.6328125 C136.60854485 5.21640223 136.60854485 5.21640223 137.5 3.1875 C142.65890216 2.14375304 147.7596105 2.00468729 153 2 C153.72058594 1.98775391 154.44117188 1.97550781 155.18359375 1.96289062 C163.54421735 1.94021262 170.9921658 4.13720939 177.375 9.6875 C179.5 12.1875 179.5 12.1875 179.5 15.1875 C180.16 15.1875 180.82 15.1875 181.5 15.1875 C186.68287611 24.09556831 187.20257753 34.42702141 184.69921875 44.3671875 C183.14774602 48.40461075 181.32632489 51.88641188 178.5 55.1875 C177.84 55.1875 177.18 55.1875 176.5 55.1875 C176.5 55.8475 176.5 56.5075 176.5 57.1875 C175.84 57.1875 175.18 57.1875 174.5 57.1875 C174.29890625 57.88230469 174.0978125 58.57710937 173.890625 59.29296875 C172.02694215 63.17215131 169.35231056 65.57368259 166.25 68.5 C161.98653135 72.62834232 158.10579758 76.68548499 154.6875 81.55859375 C152.88635774 84.02923954 150.68516087 86.05696815 148.5 88.1875 C146.92157734 90.05184042 145.36738673 91.93207948 143.83203125 93.83203125 C143.39246094 94.27933594 142.95289063 94.72664063 142.5 95.1875 C141.84 95.1875 141.18 95.1875 140.5 95.1875 C140.23832031 95.76757812 139.97664062 96.34765625 139.70703125 96.9453125 C138.4294858 99.31848755 136.99414053 101.0675843 135.1875 103.0625 C133.03422082 105.46543473 130.91183727 107.87259992 128.875 110.375 C126.53632907 113.14447873 124.16949414 115.73445133 121.5 118.1875 C120.84 118.1875 120.18 118.1875 119.5 118.1875 C119.17 119.1775 118.84 120.1675 118.5 121.1875 C117.84 121.1875 117.18 121.1875 116.5 121.1875 C116.231875 121.97125 115.96375 122.755 115.6875 123.5625 C114.5 126.1875 114.5 126.1875 111.5 128.1875 C111.355625 128.97125 111.21125 129.755 111.0625 130.5625 C110.355743 133.86069934 109.07677928 135.07922605 106.5 137.1875 C105.84 137.1875 105.18 137.1875 104.5 137.1875 C104.5 137.8475 104.5 138.5075 104.5 139.1875 C103.51 139.1875 102.52 139.1875 101.5 139.1875 C101.17 141.1675 100.84 143.1475 100.5 145.1875 C101.16 145.1875 101.82 145.1875 102.5 145.1875 C102.5 146.5075 102.5 147.8275 102.5 149.1875 C103.16 149.1875 103.82 149.1875 104.5 149.1875 C105.57525194 151.83978812 106.59456151 154.47118454 107.5 157.1875 C108.16 157.1875 108.82 157.1875 109.5 157.1875 C113.5 162.59926471 113.5 162.59926471 113.5 165.1875 C114.16 165.1875 114.82 165.1875 115.5 165.1875 C115.5 165.8475 115.5 166.5075 115.5 167.1875 C116.49 167.1875 117.48 167.1875 118.5 167.1875 C118.5 168.5075 118.5 169.8275 118.5 171.1875 C119.16 171.1875 119.82 171.1875 120.5 171.1875 C124.5 176.59926471 124.5 176.59926471 124.5 179.1875 C125.16 179.1875 125.82 179.1875 126.5 179.1875 C129.5 182.64903846 129.5 182.64903846 129.5 185.1875 C130.16 185.1875 130.82 185.1875 131.5 185.1875 C131.83 186.5075 132.16 187.8275 132.5 189.1875 C133.16 189.1875 133.82 189.1875 134.5 189.1875 C134.5 189.8475 134.5 190.5075 134.5 191.1875 C135.16 191.1875 135.82 191.1875 136.5 191.1875 C137.4765625 192.97786458 138.453125 194.76822917 139.4296875 196.55859375 C140.41410024 198.35368315 140.41410024 198.35368315 142.5 199.1875 C142.5 199.8475 142.5 200.5075 142.5 201.1875 C143.16 201.1875 143.82 201.1875 144.5 201.1875 C146.5 204.1875 146.5 204.1875 146.5 207.1875 C147.82 207.8475 149.14 208.5075 150.5 209.1875 C150.5 209.8475 150.5 210.5075 150.5 211.1875 C151.16 211.1875 151.82 211.1875 152.5 211.1875 C156.5 216.59926471 156.5 216.59926471 156.5 219.1875 C157.16 219.1875 157.82 219.1875 158.5 219.1875 C159.52611949 220.83821396 160.52308143 222.50720006 161.5 224.1875 C162.056875 224.744375 162.61375 225.30125 163.1875 225.875 C163.620625 226.308125 164.05375 226.74125 164.5 227.1875 C164.5 227.8475 164.5 228.5075 164.5 229.1875 C165.16 229.1875 165.82 229.1875 166.5 229.1875 C166.5 229.8475 166.5 230.5075 166.5 231.1875 C167.16 231.1875 167.82 231.1875 168.5 231.1875 C168.995 232.13625 169.49 233.085 170 234.0625 C172.94220587 239.22723548 177.09110915 246.48305457 182.5 249.1875 C182.5 249.8475 182.5 250.5075 182.5 251.1875 C183.16 251.1875 183.82 251.1875 184.5 251.1875 C188.07888577 261.92415732 187.41604808 274.35646426 184.5 285.1875 C183.84 285.1875 183.18 285.1875 182.5 285.1875 C182.5 285.8475 182.5 286.5075 182.5 287.1875 C178.14705882 291.1875 178.14705882 291.1875 174.5 291.1875 C174.5 291.8475 174.5 292.5075 174.5 293.1875 C168.16131432 298.01697481 162.5032133 299.54194601 154.625 299.4375 C153.92117188 299.43363281 153.21734375 299.42976563 152.4921875 299.42578125 C147.51237084 299.34278431 143.20892573 298.75714191 138.5 297.1875 C138.5 296.5275 138.5 295.8675 138.5 295.1875 C137.88125 295.06375 137.2625 294.94 136.625 294.8125 C134.5 294.1875 134.5 294.1875 132.5 292.1875 C132.5 291.1975 132.5 290.2075 132.5 289.1875 C131.84 289.1875 131.18 289.1875 130.5 289.1875 C130.5 287.8675 130.5 286.5475 130.5 285.1875 C129.18 285.1875 127.86 285.1875 126.5 285.1875 C126.5 284.5275 126.5 283.8675 126.5 283.1875 C125.84 283.1875 125.18 283.1875 124.5 283.1875 C120.5 277.77573529 120.5 277.77573529 120.5 275.1875 C119.84 275.1875 119.18 275.1875 118.5 275.1875 C117.31640625 273.76171875 117.31640625 273.76171875 116.0625 271.875 C114.74716841 269.90818756 113.54439456 268.23043215 111.83984375 266.58203125 C110.5 265.1875 110.5 265.1875 110.5 263.1875 C109.84 263.1875 109.18 263.1875 108.5 263.1875 C107.84 261.2075 107.18 259.2275 106.5 257.1875 C105.84 257.1875 105.18 257.1875 104.5 257.1875 C104.5 256.5275 104.5 255.8675 104.5 255.1875 C103.84 255.1875 103.18 255.1875 102.5 255.1875 C102.5 254.5275 102.5 253.8675 102.5 253.1875 C101.84 253.1875 101.18 253.1875 100.5 253.1875 C100.5 251.8675 100.5 250.5475 100.5 249.1875 C99.18 248.5275 97.86 247.8675 96.5 247.1875 C96.5 246.5275 96.5 245.8675 96.5 245.1875 C95.84 245.1875 95.18 245.1875 94.5 245.1875 C90.5 239.77573529 90.5 239.77573529 90.5 237.1875 C89.84 237.1875 89.18 237.1875 88.5 237.1875 C88.5 236.5275 88.5 235.8675 88.5 235.1875 C87.84 235.1875 87.18 235.1875 86.5 235.1875 C85.23828125 233.53515625 85.23828125 233.53515625 83.8125 231.25 C79.84177088 225.09052751 75.4320176 219.34976837 70.5625 213.875 C68.5 211.1875 68.5 211.1875 68.5 207.1875 C67.84 207.1875 67.18 207.1875 66.5 207.1875 C66.5 206.5275 66.5 205.8675 66.5 205.1875 C65.84 205.1875 65.18 205.1875 64.5 205.1875 C64.5 204.5275 64.5 203.8675 64.5 203.1875 C63.84 203.1875 63.18 203.1875 62.5 203.1875 C57.5 197.71130952 57.5 197.71130952 57.5 195.1875 C56.51 194.8575 55.52 194.5275 54.5 194.1875 C54.5 193.5275 54.5 192.8675 54.5 192.1875 C53.18 192.5175 51.86 192.8475 50.5 193.1875 C50.5 193.8475 50.5 194.5075 50.5 195.1875 C49.84 195.1875 49.18 195.1875 48.5 195.1875 C48.5 195.8475 48.5 196.5075 48.5 197.1875 C47.84 197.1875 47.18 197.1875 46.5 197.1875 C46.5 197.8475 46.5 198.5075 46.5 199.1875 C45.84 199.1875 45.18 199.1875 44.5 199.1875 C43.84 200.5075 43.18 201.8275 42.5 203.1875 C41.84 203.1875 41.18 203.1875 40.5 203.1875 C40.5 203.8475 40.5 204.5075 40.5 205.1875 C39.84 205.1875 39.18 205.1875 38.5 205.1875 C38.5 205.8475 38.5 206.5075 38.5 207.1875 C37.84 207.1875 37.18 207.1875 36.5 207.1875 C36.231875 207.80625 35.96375 208.425 35.6875 209.0625 C34.5 211.1875 34.5 211.1875 31.5 213.1875 C31.04245885 215.82146979 31.04245885 215.82146979 31.11523438 218.94726562 C31.10512329 220.15612427 31.09501221 221.36498291 31.08459473 222.61047363 C31.08761597 223.92495483 31.09063721 225.23943604 31.09375 226.59375 C31.08451466 227.95700322 31.07354331 229.32024569 31.06091309 230.68347168 C31.02407728 235.01813324 31.01044037 239.35270508 31 243.6875 C30.98787603 248.68564234 30.96596559 253.68336486 30.91999817 258.68132019 C30.90656667 260.6718201 30.91077309 262.66241427 30.91540527 264.6529541 C30.83416742 274.56817941 29.81167346 283.20508944 23.5 291.1875 C22.84 292.033125 22.18 292.87875 21.5 293.75 C12.31653388 301.21156622 1.93413075 302.4968347 -9.51367188 301.49169922 C-15.23162531 300.61601461 -19.74681372 297.46865744 -23.5 293.1875 C-23.5 292.5275 -23.5 291.8675 -23.5 291.1875 C-24.16 291.1875 -24.82 291.1875 -25.5 291.1875 C-28.5 287.72596154 -28.5 287.72596154 -28.5 285.1875 C-29.16 285.1875 -29.82 285.1875 -30.5 285.1875 C-32.97419888 278.19679852 -33.93416813 272.02350848 -33.88095093 264.63047791 C-33.8856309 263.61556276 -33.89031087 262.60064762 -33.89513266 261.55497748 C-33.90702691 258.17966353 -33.89764714 254.80475978 -33.88818359 251.42944336 C-33.89225173 248.99924992 -33.89759497 246.56905834 -33.90411377 244.13887024 C-33.91634805 238.23896138 -33.91459233 232.33915771 -33.90587585 226.43925183 C-33.89908374 221.64217054 -33.89818916 216.84512131 -33.9014473 212.04803658 C-33.901907 211.36370039 -33.90236669 210.67936421 -33.90284032 209.97429057 C-33.90379956 208.58382148 -33.9047722 207.1933524 -33.9057581 205.80288333 C-33.91429953 192.78431658 -33.90449715 179.76581334 -33.888357 166.747257 C-33.87495193 155.58952953 -33.87728586 144.43189571 -33.89111328 133.27416992 C-33.90718599 120.29868628 -33.91347883 107.32325819 -33.90427649 94.34776598 C-33.9033209 92.96289322 -33.90237779 91.57802044 -33.9014473 90.19314766 C-33.90098447 89.5118646 -33.90052164 88.83058154 -33.90004479 88.12865354 C-33.89746019 83.33975765 -33.90181436 78.55089716 -33.90888596 73.76200676 C-33.91820265 67.31131873 -33.91152212 60.86076568 -33.89420319 54.41009331 C-33.89024185 52.04502149 -33.89136632 49.67993478 -33.89799118 47.31486893 C-33.90621035 44.08222586 -33.89588006 40.85014583 -33.88095093 37.61753845 C-33.88764309 36.68562005 -33.89433526 35.75370164 -33.90123022 34.79354328 C-33.83171725 27.01314341 -32.22456683 19.55539442 -27.5 13.1875 C-26.84 13.1875 -26.18 13.1875 -25.5 13.1875 C-25.2525 12.61 -25.005 12.0325 -24.75 11.4375 C-23.31700012 8.85810021 -21.71575324 7.12628408 -19.5 5.1875 C-18.84 5.1875 -18.18 5.1875 -17.5 5.1875 C-17.5 4.5275 -17.5 3.8675 -17.5 3.1875 C-11.40237981 0.52328751 -6.61470109 -0.21007601 0 0 Z " fill="#3B3CAA" transform="translate(305.5,108.8125)"/>
<path d="M0 0 C0.33 0 0.66 0 1 0 C1 82.5 1 165 1 250 C1.66 250 2.32 250 3 250 C3 253.3 3 256.6 3 260 C2.34 260 1.68 260 1 260 C-1.29019145 254.51540263 -1.27845466 249.56149841 -1.24723816 243.72503662 C-1.24965257 242.69226601 -1.25206699 241.6594954 -1.25455457 240.59542871 C-1.26018864 237.13614588 -1.2515306 233.67704795 -1.24291992 230.21777344 C-1.24399285 227.7374059 -1.24593169 225.25703861 -1.24867249 222.77667236 C-1.25301777 216.74087603 -1.24808161 210.70515203 -1.23882218 204.66936657 C-1.2284306 197.64283065 -1.22850855 190.61630655 -1.22899476 183.58976439 C-1.22949512 171.05690165 -1.22033977 158.52406446 -1.20581055 145.99121094 C-1.19171159 133.82323746 -1.18464031 121.65528645 -1.18530273 109.48730469 C-1.18534269 108.73728895 -1.18538265 107.98727321 -1.18542381 107.21452972 C-1.18546417 106.46582266 -1.18550452 105.71711559 -1.1855461 104.94572043 C-1.18623533 91.09761946 -1.18035098 77.24952805 -1.17139288 63.40143017 C-1.16837321 58.50010017 -1.16731295 53.59877193 -1.16686058 48.6974411 C-1.16610857 42.10815789 -1.1597793 35.51889539 -1.14969444 28.92961884 C-1.1467634 26.50516912 -1.14554529 24.08071667 -1.14612198 21.65626526 C-1.14660954 18.35982749 -1.140988 15.06345721 -1.13371277 11.76702881 C-1.13526137 10.79642824 -1.13680997 9.82582767 -1.1384055 8.82581496 C-1.13518106 7.94771737 -1.13195661 7.06961978 -1.12863445 6.16491318 C-1.12793003 5.40340887 -1.1272256 4.64190456 -1.12649983 3.85732436 C-1 2 -1 2 0 0 Z " fill="#474797" transform="translate(25,134)"/>
<path d="M0 0 C0.66 0 1.32 0 2 0 C2 0.66 2 1.32 2 2 C2.66 2 3.32 2 4 2 C4 2.66 4 3.32 4 4 C4.66 4 5.32 4 6 4 C6 4.66 6 5.32 6 6 C6.66 6 7.32 6 8 6 C8 8.64 8 11.28 8 14 C8.66 14 9.32 14 10 14 C10 44.36 10 74.72 10 106 C10.66 106 11.32 106 12 106 C12 104.68 12 103.36 12 102 C13.32 102 14.64 102 16 102 C16 103.32 16 104.64 16 106 C13.525 106.495 13.525 106.495 11 107 C10.67 107.99 10.34 108.98 10 110 C9.34 110 8.68 110 8 110 C7.99453156 108.2447274 7.99453156 108.2447274 7.98895264 106.45399475 C7.95194796 95.40480827 7.89411526 84.35589907 7.81609726 73.30692387 C7.77665485 67.62704913 7.74445035 61.94732869 7.72900391 56.26733398 C7.71381623 50.78174677 7.67933264 45.29658381 7.63169098 39.81118584 C7.61689904 37.72255588 7.60896025 35.63386535 7.60811615 33.54518318 C7.6057382 30.61047713 7.57859145 27.6769357 7.54589844 24.74243164 C7.5509288 23.88646896 7.55595917 23.03050629 7.56114197 22.14860535 C7.4273813 14.34459241 4.87157175 8.08946469 0 2 C0 1.34 0 0.68 0 0 Z " fill="#676887" transform="translate(80,118)"/>
<path d="M0 0 C4.85639537 4.20012573 7.49919702 8.7789017 8.26622581 15.243927 C8.36655218 17.71094566 8.37155565 20.16004979 8.34057617 22.62890625 C8.34101425 23.55666367 8.34145233 24.48442108 8.34190369 25.44029236 C8.33982766 28.48124861 8.31655275 31.52164106 8.29296875 34.5625 C8.28736858 36.68098652 8.28310047 38.79947694 8.28010559 40.91796875 C8.26869002 46.47465881 8.23925114 52.03111099 8.20599365 57.58770752 C8.1752218 63.2654702 8.16158507 68.94327159 8.14648438 74.62109375 C8.11437829 85.74749994 8.06322179 96.87373013 8 108 C7.01 108.495 7.01 108.495 6 109 C6 77.65 6 46.3 6 14 C5.34 14 4.68 14 4 14 C4 11.36 4 8.72 4 6 C3.34 6 2.68 6 2 6 C2 5.34 2 4.68 2 4 C1.34 4 0.68 4 0 4 C0 2.68 0 1.36 0 0 Z " fill="#404192" transform="translate(80,120)"/>
<path d="M0 0 C0.33 1.32 0.66 2.64 1 4 C0.34 4 -0.32 4 -1 4 C-1.33 5.65 -1.66 7.3 -2 9 C-2.99 9.33 -3.98 9.66 -5 10 C-4.99777939 10.72440781 -4.99555878 11.44881561 -4.99327087 12.19517517 C-4.97326773 19.00843453 -4.95802575 25.82168953 -4.94818783 32.63497066 C-4.94296011 36.13808885 -4.9358645 39.64118285 -4.92456055 43.14428711 C-4.91165794 47.16780841 -4.90677088 51.19130414 -4.90234375 55.21484375 C-4.89718246 56.47836166 -4.89202118 57.74187958 -4.88670349 59.04368591 C-4.88662796 60.204814 -4.88655243 61.36594208 -4.88647461 62.56225586 C-4.884254 63.59039902 -4.88203339 64.61854218 -4.87974548 65.67784119 C-5 68 -5 68 -6 69 C-6.23192865 70.51469448 -6.41215238 72.03754562 -6.5625 73.5625 C-6.64628906 74.38878906 -6.73007813 75.21507812 -6.81640625 76.06640625 C-6.87699219 76.70449219 -6.93757813 77.34257812 -7 78 C-7.66 78 -8.32 78 -9 78 C-9 78.66 -9 79.32 -9 80 C-9.66 80 -10.32 80 -11 80 C-10.01 74.06 -10.01 74.06 -9 68 C-8.34 68 -7.68 68 -7 68 C-7.02331642 66.85487442 -7.02331642 66.85487442 -7.04710388 65.68661499 C-7.18760195 58.47768695 -7.29405499 51.26942628 -7.3626852 44.05948448 C-7.39915646 40.35302515 -7.44858712 36.64770069 -7.52807617 32.94189453 C-7.60436608 29.36266635 -7.64603622 25.78452658 -7.6641407 22.20454788 C-7.67703473 20.84170016 -7.70221637 19.47890938 -7.7401104 18.11652756 C-8.02591212 7.41151431 -8.02591212 7.41151431 -5.39505005 3.79180908 C-3.66207704 2.29286672 -2.01186821 1.08800607 0 0 Z " fill="#6B6C8B" transform="translate(95,316)"/>
<path d="M0 0 C0.33 1.32 0.66 2.64 1 4 C0.34 4 -0.32 4 -1 4 C-1 23.8 -1 43.6 -1 64 C-1.66 64 -2.32 64 -3 64 C-3.06943237 55.9507788 -3.12277646 47.90168218 -3.15543652 39.85223579 C-3.17110972 36.11476204 -3.19237761 32.37749277 -3.22631836 28.64013672 C-3.25885367 25.0350836 -3.27684054 21.43022748 -3.28463173 17.82503891 C-3.29018581 16.44786349 -3.30103135 15.07069915 -3.31719017 13.69360733 C-3.33888435 11.76866369 -3.34022471 9.84352288 -3.34057617 7.91845703 C-3.34723801 6.82147491 -3.35389984 5.7244928 -3.36076355 4.5942688 C-3.24171158 3.7381601 -3.12265961 2.88205139 -3 2 C-2.01 1.34 -1.02 0.68 0 0 Z " fill="#666683" transform="translate(339,320)"/>
<path d="M0 0 C1.32 0.33 2.64 0.66 4 1 C3.67 1.33 3.34 1.66 3 2 C2.87642922 3.93223995 2.82205542 5.86893799 2.79467773 7.80493164 C2.77473251 9.04614273 2.75478729 10.28735382 2.73423767 11.56617737 C2.71725207 12.9308357 2.70037331 14.29549537 2.68359375 15.66015625 C2.66303064 17.04878875 2.64203434 18.4374149 2.62062073 19.82603455 C2.56533353 23.48714059 2.51595374 27.14830373 2.46777344 30.80950928 C2.41760679 34.54297997 2.36189554 38.27636738 2.30664062 42.00976562 C2.19897782 49.3397733 2.09755106 56.66985005 2 64 C1.34 64 0.68 64 0 64 C0 42.88 0 21.76 0 0 Z " fill="#404195" transform="translate(86,320)"/>
<path d="M0 0 C0.33 0 0.66 0 1 0 C2.01690617 5.0361457 2.13593121 9.83264917 2.11352539 14.94287109 C2.11367142 15.8215686 2.11381744 16.70026611 2.1139679 17.60559082 C2.11327413 20.49489861 2.1055069 23.38414104 2.09765625 26.2734375 C2.09579017 28.28268397 2.09436716 30.29193089 2.09336853 32.30117798 C2.08955836 37.57832098 2.0797409 42.85543627 2.06866455 48.13256836 C2.05841816 53.52196884 2.053864 58.91137382 2.04882812 64.30078125 C2.03811726 74.86719965 2.02105888 85.43359751 2 96 C2.99 96 3.98 96 5 96 C5 95.34 5 94.68 5 94 C5.66 94 6.32 94 7 94 C6.67 94.99 6.34 95.98 6 97 C5.34 97 4.68 97 4 97 C4 97.99 4 98.98 4 100 C3.01 100 2.02 100 1 100 C0.67 67 0.34 34 0 0 Z " fill="#5C5F80" transform="translate(335,128)"/>
<path d="M0 0 C8.1945954 10.14345334 8.27301004 23.57237096 7 36 C5.55956013 42.97437466 2.80794372 49.01608844 -1 55 C-1.66 55 -2.32 55 -3 55 C-2.06806476 52.59250062 -1.10051359 50.21612409 -0.01171875 47.875 C0.34277344 47.111875 0.69726562 46.34875 1.0625 45.5625 C1.40410156 44.84191406 1.74570312 44.12132812 2.09765625 43.37890625 C4.21403913 37.79935138 4.19364065 32.07392652 4.1875 26.1875 C4.18669434 25.38940918 4.18588867 24.59131836 4.18505859 23.76904297 C4.12090066 17.61113976 3.93367362 11.57094471 0.9296875 6.0234375 C0 4 0 4 0 0 Z " fill="#9E9EA2" transform="translate(503,351)"/>
<path d="M0 0 C0.66 0 1.32 0 2 0 C2 0.66 2 1.32 2 2 C2.66 2 3.32 2 4 2 C4 2.66 4 3.32 4 4 C4.66 4 5.32 4 6 4 C6 5.32 6 6.64 6 8 C6.66 8 7.32 8 8 8 C8 9.98 8 11.96 8 14 C8.66 14 9.32 14 10 14 C10.05434116 16.5419589 10.0938339 19.08273682 10.125 21.625 C10.14175781 22.33785156 10.15851563 23.05070312 10.17578125 23.78515625 C10.21684602 28.2612164 9.69086567 31.77949278 8 36 C7.34 36 6.68 36 6 36 C6 37.32 6 38.64 6 40 C5.01 40 4.02 40 3 40 C3.2165625 39.47535156 3.433125 38.95070312 3.65625 38.41015625 C7.5983892 27.44151895 7.67577657 14.7153213 3 4 C2.34 4 1.68 4 1 4 C0.67 2.68 0.34 1.36 0 0 Z " fill="#686A88" transform="translate(484,120)"/>
<path d="M0 0 C0.66 0 1.32 0 2 0 C5.68899252 11.63222641 2.74769159 25.17426988 -2.0625 35.9375 C-5.38504491 42.26664229 -10.03337637 47.88393814 -15 53 C-15.66 53 -16.32 53 -17 53 C-15.63378087 49.95279558 -14.05402742 47.84012319 -11.75 45.4375 C-2.23598146 34.75160861 0.37731589 23.88280521 0.125 9.9375 C0.11597656 8.97650391 0.10695313 8.01550781 0.09765625 7.02539062 C0.07435208 4.68332195 0.04164058 2.34180208 0 0 Z " fill="#A0A0A6" transform="translate(507,129)"/>
<path d="M0 0 C0.66 0 1.32 0 2 0 C5.57888577 10.73665732 4.91604808 23.16896426 2 34 C1.34 34 0.68 34 0 34 C0 34.66 0 35.32 0 36 C-1.96147874 37.38938077 -3.96166576 38.7260411 -6 40 C-6 38.68 -6 37.36 -6 36 C-5.34 36 -4.68 36 -4 36 C-4 35.34 -4 34.68 -4 34 C-3.34 34 -2.68 34 -2 34 C-2 33.34 -2 32.68 -2 32 C-1.34 32 -0.68 32 0 32 C0 29.36 0 26.72 0 24 C0.66 24 1.32 24 2 24 C2 18.72 2 13.44 2 8 C1.34 8 0.68 8 0 8 C0 5.36 0 2.72 0 0 Z " fill="#4E4F90" transform="translate(488,360)"/>
<path d="M0 0 C0.66 0 1.32 0 2 0 C0.75023244 3.65316671 0.32901247 4.78065836 -3 7 C-3.144375 7.78375 -3.28875 8.5675 -3.4375 9.375 C-4.144257 12.67319934 -5.42322072 13.89172605 -8 16 C-8.66 16 -9.32 16 -10 16 C-10 16.66 -10 17.32 -10 18 C-10.99 18 -11.98 18 -13 18 C-13.33 19.98 -13.66 21.96 -14 24 C-13.34 24 -12.68 24 -12 24 C-12 25.32 -12 26.64 -12 28 C-11.34 28 -10.68 28 -10 28 C-10 28.66 -10 29.32 -10 30 C-11.32 30 -12.64 30 -14 30 C-16.1951074 24.44766951 -15.84284324 21.52852971 -14 16 C-13.34 16 -12.68 16 -12 16 C-12 14.68 -12 13.36 -12 12 C-10.68 12 -9.36 12 -8 12 C-8 10.68 -8 9.36 -8 8 C-7.34 8 -6.68 8 -6 8 C-6 7.34 -6 6.68 -6 6 C-5.34 6 -4.68 6 -4 6 C-4 5.34 -4 4.68 -4 4 C-3.34 4 -2.68 4 -2 4 C-2 3.34 -2 2.68 -2 2 C-1.34 2 -0.68 2 0 2 C0 1.34 0 0.68 0 0 Z " fill="#585A8F" transform="translate(420,230)"/>
<path d="M0 0 C0.33 0 0.66 0 1 0 C1.02326234 8.05873977 1.04098548 16.11746529 1.05181217 24.17623043 C1.05701078 27.91901277 1.06405297 31.66177198 1.07543945 35.40454102 C1.08637646 39.02257576 1.09229955 42.64058837 1.09487724 46.25863838 C1.09671213 47.63279124 1.10029485 49.00694301 1.10573006 50.38108635 C1.1334032 57.67346532 0.99624224 64.77121115 0 72 C-0.66 72 -1.32 72 -2 72 C-2 72.66 -2 73.32 -2 74 C-2.66 74 -3.32 74 -4 74 C-3.01 68.06 -3.01 68.06 -2 62 C-1.34 62 -0.68 62 0 62 C0 41.54 0 21.08 0 0 Z " fill="#5D5F84" transform="translate(88,322)"/>
<path d="M0 0 C0 2.62113708 -0.31292445 4.50935112 -1 7 C-2.98 7 -4.96 7 -7 7 C-7 7.66 -7 8.32 -7 9 C-7.66 9 -8.32 9 -9 9 C-9 9.66 -9 10.32 -9 11 C-11.87781585 12.63219407 -13.95576197 13.25528532 -17.2578125 13.265625 C-18.44310547 13.26949219 -18.44310547 13.26949219 -19.65234375 13.2734375 C-20.46832031 13.26570313 -21.28429687 13.25796875 -22.125 13.25 C-23.36056641 13.26160156 -23.36056641 13.26160156 -24.62109375 13.2734375 C-25.40871094 13.27085937 -26.19632812 13.26828125 -27.0078125 13.265625 C-27.72598145 13.26336914 -28.44415039 13.26111328 -29.18408203 13.25878906 C-31 13 -31 13 -33 11 C-31.94941406 10.97421875 -30.89882813 10.9484375 -29.81640625 10.921875 C-21.68572482 10.62751664 -15.24649355 9.99806541 -8 6 C-7.01 5.67 -6.02 5.34 -5 5 C-5 4.34 -5 3.68 -5 3 C-2.5 1.375 -2.5 1.375 0 0 Z " fill="#656687" transform="translate(485,397)"/>
<path d="M0 0 C2.64 0 5.28 0 8 0 C5.69528263 1.53647825 3.66906524 2.66226759 1.1875 3.8125 C-5.4186394 7.10950902 -10.10496421 11.17996376 -13 18 C-13.8211956 20.65955392 -14.42539478 23.27062522 -15 26 C-15.33 26 -15.66 26 -16 26 C-16.1799928 20.78020872 -15.97094808 16.92737019 -14 12 C-13.34 12 -12.68 12 -12 12 C-12 11.34 -12 10.68 -12 10 C-11.34 10 -10.68 10 -10 10 C-10 9.34 -10 8.68 -10 8 C-9.34 8 -8.68 8 -8 8 C-8 7.34 -8 6.68 -8 6 C-7.34 6 -6.68 6 -6 6 C-6 5.34 -6 4.68 -6 4 C-5.34 4 -4.68 4 -4 4 C-4 3.34 -4 2.68 -4 2 C-2.68 2 -1.36 2 0 2 C0 1.34 0 0.68 0 0 Z " fill="#656888" transform="translate(40,110)"/>
<path d="M0 0 C1.32 0 2.64 0 4 0 C4 0.66 4 1.32 4 2 C6.64 2 9.28 2 12 2 C12 3.32 12 4.64 12 6 C12.66 6 13.32 6 14 6 C14 8.97 14 11.94 14 15 C13.01 14.01 12.02 13.02 11 12 C11 11.34 11 10.68 11 10 C10.01 10 9.02 10 8 10 C8 9.34 8 8.68 8 8 C7.34 8 6.68 8 6 8 C6 6.68 6 5.36 6 4 C5.071875 3.7834375 5.071875 3.7834375 4.125 3.5625 C2 3 2 3 0 2 C0 1.34 0 0.68 0 0 Z " fill="#696B7C" transform="translate(320,112)"/>
<path d="M0 0 C0.66 0 1.32 0 2 0 C2 0.66 2 1.32 2 2 C2.66 2 3.32 2 4 2 C4 1.34 4 0.68 4 0 C4.66 0 5.32 0 6 0 C6 2.64 6 5.28 6 8 C7.32 8 8.64 8 10 8 C10 9.32 10 10.64 10 12 C11.32 12 12.64 12 14 12 C14 13.98 14 15.96 14 18 C9.66486294 16.45028979 7.41735043 13.10992099 4.75 9.5625 C4.06164062 8.68368164 4.06164062 8.68368164 3.359375 7.78710938 C0 3.38292876 0 3.38292876 0 0 Z " fill="#676C81" transform="translate(474,340)"/>
<path d="M0 0 C2 1 2 1 3.1171875 3.3515625 C4.33746852 8.39467078 4.21166255 13.20857872 4.125 18.375 C4.11597656 19.39722656 4.10695312 20.41945313 4.09765625 21.47265625 C4.0742043 23.98201522 4.04138355 26.49088336 4 29 C3.34 29 2.68 29 2 29 C2 30.32 2 31.64 2 33 C1.34 33 0.68 33 0 33 C0 30.36 0 27.72 0 25 C0.66 25 1.32 25 2 25 C2 18.4 2 11.8 2 5 C1.34 5 0.68 5 0 5 C0 3.35 0 1.7 0 0 Z " fill="#4A4A97" transform="translate(240,361)"/>
<path d="M0 0 C0.33 0.66 0.66 1.32 1 2 C2.65 2 4.3 2 6 2 C6 2.66 6 3.32 6 4 C6.66 4 7.32 4 8 4 C8 4.66 8 5.32 8 6 C9.98 6 11.96 6 14 6 C14 7.32 14 8.64 14 10 C13.34 10 12.68 10 12 10 C11.67 11.32 11.34 12.64 11 14 C10.01 13.34 9.02 12.68 8 12 C8 11.34 8 10.68 8 10 C7.34 10 6.68 10 6 10 C5.34 8.02 4.68 6.04 4 4 C2.68 4 1.36 4 0 4 C0 2.68 0 1.36 0 0 Z " fill="#6C6A7B" transform="translate(204,314)"/>
<path d="M0 0 C0.66 0 1.32 0 2 0 C2 1.32 2 2.64 2 4 C1.34 4 0.68 4 0 4 C0 4.66 0 5.32 0 6 C-0.66 6 -1.32 6 -2 6 C-2 6.66 -2 7.32 -2 8 C-2.66 8 -3.32 8 -4 8 C-4 8.66 -4 9.32 -4 10 C-4.66 10 -5.32 10 -6 10 C-6 10.66 -6 11.32 -6 12 C-6.66 12 -7.32 12 -8 12 C-8 12.66 -8 13.32 -8 14 C-8.66 14 -9.32 14 -10 14 C-10 14.66 -10 15.32 -10 16 C-10.66 16 -11.32 16 -12 16 C-12 16.66 -12 17.32 -12 18 C-12.99 18.66 -13.98 19.32 -15 20 C-15.72382467 22.05925139 -15.72382467 22.05925139 -16 24 C-17.32 23.67 -18.64 23.34 -20 23 C-19.443125 22.38253906 -18.88625 21.76507813 -18.3125 21.12890625 C-15.87275481 18.42128364 -13.43628161 15.71073926 -11 13 C-10.2265625 12.14277344 -9.453125 11.28554687 -8.65625 10.40234375 C-7.9446875 9.60957031 -7.233125 8.81679687 -6.5 8 C-5.52546875 6.9171875 -5.52546875 6.9171875 -4.53125 5.8125 C-2.93634505 4.06902345 -2.93634505 4.06902345 -2 2 C-1.34 2 -0.68 2 0 2 C0 1.34 0 0.68 0 0 Z " fill="#65668A" transform="translate(482,164)"/>
<path d="M0 0 C0.33 0.99 0.66 1.98 1 3 C0.34 3 -0.32 3 -1 3 C-1 3.66 -1 4.32 -1 5 C-1.66 5 -2.32 5 -3 5 C-3 6.32 -3 7.64 -3 9 C-3.66 9 -4.32 9 -5 9 C-5 9.66 -5 10.32 -5 11 C-5.66 11 -6.32 11 -7 11 C-7 11.66 -7 12.32 -7 13 C-7.66 13 -8.32 13 -9 13 C-9 13.66 -9 14.32 -9 15 C-10.32 15 -11.64 15 -13 15 C-13 16.32 -13 17.64 -13 19 C-14.32 19 -15.64 19 -17 19 C-17 17 -17 17 -15.625 15.375 C-14 14 -14 14 -12 14 C-11.731875 13.360625 -11.46375 12.72125 -11.1875 12.0625 C-10 10 -10 10 -7 9 C-6.71125 8.4225 -6.4225 7.845 -6.125 7.25 C-4.61984999 4.23969997 -2.42622037 2.29852456 0 0 Z " fill="#6A6C83" transform="translate(439,213)"/>
<path d="M0 0 C0 0.66 0 1.32 0 2 C-0.66 2 -1.32 2 -2 2 C-2 2.66 -2 3.32 -2 4 C-5.06156654 5.77669223 -7.24036215 6.24050818 -10.765625 6.1953125 C-11.65507813 6.18886719 -12.54453125 6.18242187 -13.4609375 6.17578125 C-14.38132812 6.15902344 -15.30171875 6.14226562 -16.25 6.125 C-17.18585937 6.11597656 -18.12171875 6.10695313 -19.0859375 6.09765625 C-21.39088657 6.07413636 -23.6953116 6.04126853 -26 6 C-26 5.34 -26 4.68 -26 4 C-24.9378125 3.96261719 -23.875625 3.92523438 -22.78125 3.88671875 C-15.16066165 3.55440995 -7.01152569 0 0 0 Z " fill="#676887" transform="translate(74,406)"/>
<path d="M0 0 C1.32 0 2.64 0 4 0 C4 1.32 4 2.64 4 4 C4.66 4 5.32 4 6 4 C6.474375 4.804375 6.94875 5.60875 7.4375 6.4375 C8.79983672 9.2918076 8.79983672 9.2918076 12 10 C12 10.66 12 11.32 12 12 C10.68 12 9.36 12 8 12 C8 13.32 8 14.64 8 16 C6.68 16 5.36 16 4 16 C4.66666667 13.33333333 5.33333333 10.66666667 6 8 C5.34 8 4.68 8 4 8 C4 7.34 4 6.68 4 6 C3.34 6 2.68 6 2 6 C2 5.34 2 4.68 2 4 C1.34 4 0.68 4 0 4 C0 2.68 0 1.36 0 0 Z " fill="#6A6C7E" transform="translate(432,394)"/>
<path d="M0 0 C1.65 0 3.3 0 5 0 C5 0.66 5 1.32 5 2 C4.34 2 3.68 2 3 2 C3 2.66 3 3.32 3 4 C2.34 4 1.68 4 1 4 C1 4.66 1 5.32 1 6 C-0.32 6 -1.64 6 -3 6 C-3 6.66 -3 7.32 -3 8 C-3.66 8 -4.32 8 -5 8 C-5 8.66 -5 9.32 -5 10 C-5.66 10 -6.32 10 -7 10 C-7 10.66 -7 11.32 -7 12 C-7.66 12 -8.32 12 -9 12 C-9 13.32 -9 14.64 -9 16 C-10.32 16 -11.64 16 -13 16 C-13 16.66 -13 17.32 -13 18 C-13.66 17.67 -14.32 17.34 -15 17 C-10.96938454 12.28332233 -6.85059296 7.75281384 -2.3828125 3.4453125 C-0.89145515 2.02890223 -0.89145515 2.02890223 0 0 Z " fill="#49498F" transform="translate(443,112)"/>
<path d="M0 0 C-0.66 0 -1.32 0 -2 0 C-2 0.66 -2 1.32 -2 2 C-2.66 2 -3.32 2 -4 2 C-4 2.66 -4 3.32 -4 4 C-5.32 4 -6.64 4 -8 4 C-8 4.66 -8 5.32 -8 6 C-13.94 6 -19.88 6 -26 6 C-26 5.34 -26 4.68 -26 4 C-25.09378906 3.97421875 -24.18757813 3.9484375 -23.25390625 3.921875 C-16.38100026 3.60186668 -10.83796916 3.10709571 -4.76953125 -0.2578125 C-3 -1 -3 -1 0 0 Z " fill="#686983" transform="translate(324,406)"/>
<path d="M0 0 C1.32 0 2.64 0 4 0 C4 0.66 4 1.32 4 2 C5.98 2 7.96 2 10 2 C10 2.66 10 3.32 10 4 C16.27 4 22.54 4 29 4 C25.38068637 6.41287575 22.63042126 6.38274316 18.4375 6.375 C17.72529297 6.37628906 17.01308594 6.37757813 16.27929688 6.37890625 C10.25437032 6.25895296 5.33090756 4.87048869 0 2 C0 1.34 0 0.68 0 0 Z " fill="#444396" transform="translate(38,404)"/>
<path d="M0 0 C2.64 0 5.28 0 8 0 C8 0.66 8 1.32 8 2 C14.27 2 20.54 2 27 2 C22.96485533 4.69009645 19.92110768 4.3314193 15.1875 4.3125 C14.39279297 4.32861328 13.59808594 4.34472656 12.77929688 4.36132812 C7.75489306 4.36548396 4.39979559 3.68522146 0 1 C0 0.67 0 0.34 0 0 Z " fill="#454495" transform="translate(288,406)"/>
<path d="M0 0 C0.99 0.33 1.98 0.66 3 1 C1.75 2.5 1.75 2.5 0 4 C-1.32 4 -2.64 4 -4 4 C-4 4.66 -4 5.32 -4 6 C-4.66 6 -5.32 6 -6 6 C-6 6.66 -6 7.32 -6 8 C-6.66 8 -7.32 8 -8 8 C-8 8.66 -8 9.32 -8 10 C-8.66 10 -9.32 10 -10 10 C-10 10.66 -10 11.32 -10 12 C-10.66 12 -11.32 12 -12 12 C-12.103125 12.78375 -12.20625 13.5675 -12.3125 14.375 C-13 17 -13 17 -16 19 C-15.33938973 13.38481274 -12.98611307 9.7210624 -8.8046875 6.09765625 C-2.88061798 1.44030899 -2.88061798 1.44030899 0 0 Z " fill="#444590" transform="translate(42,112)"/>
<path d="M0 0 C0.66 0 1.32 0 2 0 C2 1.32 2 2.64 2 4 C1.34 4 0.68 4 0 4 C0 4.66 0 5.32 0 6 C-0.66 6 -1.32 6 -2 6 C-2 6.66 -2 7.32 -2 8 C-2.66 8 -3.32 8 -4 8 C-4 8.66 -4 9.32 -4 10 C-4.66 10 -5.32 10 -6 10 C-6 11.32 -6 12.64 -6 14 C-6.763125 14.28875 -7.52625 14.5775 -8.3125 14.875 C-11.15029308 15.96269013 -11.15029308 15.96269013 -14 18 C-12.56951306 14.81716656 -10.80982757 12.42084342 -8.5 9.8125 C-7.8915625 9.11769531 -7.283125 8.42289063 -6.65625 7.70703125 C-5 6 -5 6 -3 5 C-2.67 4.01 -2.34 3.02 -2 2 C-1.34 2 -0.68 2 0 2 C0 1.34 0 0.68 0 0 Z " fill="#646786" transform="translate(218,182)"/>
<path d="M0 0 C0.66 0 1.32 0 2 0 C2 0.66 2 1.32 2 2 C2.66 2 3.32 2 4 2 C4 2.66 4 3.32 4 4 C4.66 4 5.32 4 6 4 C6 5.32 6 6.64 6 8 C6.66 8 7.32 8 8 8 C8 15.26 8 22.52 8 30 C7.67 30 7.34 30 7 30 C6.94392578 28.31583984 6.94392578 28.31583984 6.88671875 26.59765625 C6.55630226 18.57363952 6.13750826 11.50273713 3 4 C2.34 4 1.68 4 1 4 C0.67 2.68 0.34 1.36 0 0 Z " fill="#5E618E" transform="translate(484,120)"/>
<path d="M0 0 C0.66 0 1.32 0 2 0 C2 0.66 2 1.32 2 2 C2.66 2 3.32 2 4 2 C4 2.66 4 3.32 4 4 C4.66 4 5.32 4 6 4 C6 4.66 6 5.32 6 6 C6.66 6 7.32 6 8 6 C8 7.32 8 8.64 8 10 C8.66 10 9.32 10 10 10 C10 10.66 10 11.32 10 12 C10.66 12 11.32 12 12 12 C12 13.32 12 14.64 12 16 C11.34 16 10.68 16 10 16 C9.67 14.68 9.34 13.36 9 12 C8.01 12 7.02 12 6 12 C6 11.34 6 10.68 6 10 C5.34 10 4.68 10 4 10 C3.566875 8.63875 3.566875 8.63875 3.125 7.25 C2.23468224 4.67797092 1.28505587 2.38653234 0 0 Z " fill="#57588B" transform="translate(188,292)"/>
<path d="M0 0 C0.66 0 1.32 0 2 0 C2.103125 0.639375 2.20625 1.27875 2.3125 1.9375 C2.539375 2.618125 2.76625 3.29875 3 4 C3.99 4.33 4.98 4.66 6 5 C10 9.45714286 10 9.45714286 10 12 C8 12 8 12 5.875 10.125 C4 8 4 8 4 6 C3.34 6 2.68 6 2 6 C2 8.31 2 10.62 2 13 C1.34 12.67 0.68 12.34 0 12 C0 8.04 0 4.08 0 0 Z " fill="#6C6C7A" transform="translate(414,372)"/>
<path d="M0 0 C0.66 0.33 1.32 0.66 2 1 C-2.85059078 7.3282542 -7.97367756 11.267708 -15 15 C-15.66 14.34 -16.32 13.68 -17 13 C-15 11 -15 11 -12.875 10.3125 C-7.80932027 7.99990708 -3.90969133 3.90969133 0 0 Z " fill="#89898C" transform="translate(498,407)"/>
<path d="M0 0 C0.639375 0.804375 1.27875 1.60875 1.9375 2.4375 C3.40603502 4.2750504 3.40603502 4.2750504 5 6 C5.23678716 8.69235776 5.42198025 11.36498156 5.5625 14.0625 C5.60568359 14.82111328 5.64886719 15.57972656 5.69335938 16.36132812 C5.79973633 18.24065438 5.90039934 20.12030244 6 22 C5.34 22 4.68 22 4 22 C4 18.04 4 14.08 4 10 C3.34 10 2.68 10 2 10 C2 8.68 2 7.36 2 6 C1.34 6 0.68 6 0 6 C0 4.02 0 2.04 0 0 Z " fill="#424397" transform="translate(330,122)"/>
<path d="M0 0 C0.66 0 1.32 0 2 0 C2 1.32 2 2.64 2 4 C1.34 4 0.68 4 0 4 C0 4.66 0 5.32 0 6 C-0.66 6 -1.32 6 -2 6 C-2 6.66 -2 7.32 -2 8 C-2.66 8 -3.32 8 -4 8 C-4 9.32 -4 10.64 -4 12 C-5.32 12 -6.64 12 -8 12 C-8 12.66 -8 13.32 -8 14 C-8.66 14 -9.32 14 -10 14 C-10 14.66 -10 15.32 -10 16 C-10.66 16 -11.32 16 -12 16 C-10.58226538 12.45566346 -9.32387762 11.66193881 -6 10 C-4.81669817 8.13355094 -4.81669817 8.13355094 -4 6 C-3.33333333 4.66666667 -2.66666667 3.33333333 -2 2 C-1.34 2 -0.68 2 0 2 C0 1.34 0 0.68 0 0 Z " fill="#444592" transform="translate(136,176)"/>
<path d="M0 0 C0.33 0.66 0.66 1.32 1 2 C1.99 2 2.98 2 4 2 C4 2.66 4 3.32 4 4 C4.66 4 5.32 4 6 4 C6 4.66 6 5.32 6 6 C6.66 6 7.32 6 8 6 C8 6.66 8 7.32 8 8 C8.66 8 9.32 8 10 8 C10 9.32 10 10.64 10 12 C8.68 12 7.36 12 6 12 C6 10.68 6 9.36 6 8 C5.34 8 4.68 8 4 8 C4 7.34 4 6.68 4 6 C3.34 6 2.68 6 2 6 C2 5.34 2 4.68 2 4 C1.34 4 0.68 4 0 4 C0 2.68 0 1.36 0 0 Z " fill="#52548C" transform="translate(150,350)"/>
<path d="M0 0 C2.64 0 5.28 0 8 0 C5.63024363 3.72390287 3.35037463 7.09634199 0 10 C-0.66 10 -1.32 10 -2 10 C-2 9.34 -2 8.68 -2 8 C-1.34 8 -0.68 8 0 8 C0 5.36 0 2.72 0 0 Z " fill="#676A83" transform="translate(412,138)"/>
<path d="M0 0 C0.33 0 0.66 0 1 0 C1 3.3 1 6.6 1 10 C0.34 10 -0.32 10 -1 10 C-1 11.32 -1 12.64 -1 14 C-2.875 16.25 -2.875 16.25 -5 18 C-5.66 18 -6.32 18 -7 18 C-7 18.66 -7 19.32 -7 20 C-7.99 19.67 -8.98 19.34 -10 19 C-9.60167969 18.57589844 -9.20335937 18.15179688 -8.79296875 17.71484375 C-3.9120221 12.31136267 -1.11064207 7.33023769 0 0 Z " fill="#60628E" transform="translate(335,384)"/>
<path d="M0 0 C0.66 0 1.32 0 2 0 C0.34643078 3.58273331 -1.67980703 6.80973467 -4 10 C-4.66 10 -5.32 10 -6 10 C-6 8.68 -6 7.36 -6 6 C-6.66 6 -7.32 6 -8 6 C-8 4.68 -8 3.36 -8 2 C-6.68 2 -5.36 2 -4 2 C-4 2.66 -4 3.32 -4 4 C-3.34 4 -2.68 4 -2 4 C-2 3.34 -2 2.68 -2 2 C-1.34 2 -0.68 2 0 2 C0 1.34 0 0.68 0 0 Z " fill="#666982" transform="translate(178,128)"/>
<path d="M0 0 C0.80566406 0.00322266 1.61132812 0.00644531 2.44140625 0.00976562 C3.70404297 0.02233398 3.70404297 0.02233398 4.9921875 0.03515625 C5.84167969 0.03966797 6.69117188 0.04417969 7.56640625 0.04882812 C9.66669659 0.06062751 11.7669508 0.07856319 13.8671875 0.09765625 C13.8671875 0.75765625 13.8671875 1.41765625 13.8671875 2.09765625 C15.1871875 2.42765625 16.5071875 2.75765625 17.8671875 3.09765625 C15.2271875 3.09765625 12.5871875 3.09765625 9.8671875 3.09765625 C9.8671875 2.43765625 9.8671875 1.77765625 9.8671875 1.09765625 C5.9071875 1.09765625 1.9471875 1.09765625 -2.1328125 1.09765625 C-2.1328125 1.75765625 -2.1328125 2.41765625 -2.1328125 3.09765625 C-4.4428125 3.09765625 -6.7528125 3.09765625 -9.1328125 3.09765625 C-5.64237727 0.77069943 -4.09547084 -0.02884134 0 0 Z " fill="#4B4D87" transform="translate(300.1328125,108.90234375)"/>
<path d="M0 0 C0.33 0.99 0.66 1.98 1 3 C0.34 3 -0.32 3 -1 3 C-1 3.66 -1 4.32 -1 5 C-1.66 5 -2.32 5 -3 5 C-3 5.66 -3 6.32 -3 7 C-3.66 7 -4.32 7 -5 7 C-5 7.66 -5 8.32 -5 9 C-5.66 9 -6.32 9 -7 9 C-7 10.32 -7 11.64 -7 13 C-7.66 13 -8.32 13 -9 13 C-9 13.66 -9 14.32 -9 15 C-10.32 14.67 -11.64 14.34 -13 14 C-11.2088872 12.04115757 -9.41713468 10.08290714 -7.625 8.125 C-7.11710938 7.56941406 -6.60921875 7.01382813 -6.0859375 6.44140625 C-4.0883974 4.25988219 -2.09183907 2.09183907 0 0 Z " fill="#45468E" transform="translate(151,161)"/>
<path d="M0 0 C1.32 0 2.64 0 4 0 C4 0.66 4 1.32 4 2 C2.609375 3.3671875 2.609375 3.3671875 0.75 4.875 C-1.97805828 7.1327034 -4.54236923 9.444064 -7 12 C-7.33 10.68 -7.66 9.36 -8 8 C-7.34 8 -6.68 8 -6 8 C-6 7.34 -6 6.68 -6 6 C-5.34 6 -4.68 6 -4 6 C-4 5.34 -4 4.68 -4 4 C-3.34 4 -2.68 4 -2 4 C-2 3.34 -2 2.68 -2 2 C-1.34 2 -0.68 2 0 2 C0 1.34 0 0.68 0 0 Z " fill="#63648B" transform="translate(284,112)"/>
<path d="M0 0 C0.99 0.33 1.98 0.66 3 1 C-0.96 5.29 -4.92 9.58 -9 14 C-9.33 12.68 -9.66 11.36 -10 10 C-9.34 10 -8.68 10 -8 10 C-8 9.34 -8 8.68 -8 8 C-7.34 8 -6.68 8 -6 8 C-6 7.34 -6 6.68 -6 6 C-5.34 6 -4.68 6 -4 6 C-4 5.34 -4 4.68 -4 4 C-3.34 4 -2.68 4 -2 4 C-2 3.34 -2 2.68 -2 2 C-1.34 2 -0.68 2 0 2 C0 1.34 0 0.68 0 0 Z " fill="#67678A" transform="translate(156,152)"/>
<path d="M0 0 C0.66 0 1.32 0 2 0 C2 1.98 2 3.96 2 6 C0.68 6 -0.64 6 -2 6 C-2 6.66 -2 7.32 -2 8 C-2.66 8 -3.32 8 -4 8 C-4 8.66 -4 9.32 -4 10 C-4.66 10 -5.32 10 -6 10 C-6 10.66 -6 11.32 -6 12 C-7.98 12.99 -7.98 12.99 -10 14 C-8.43909056 10.16867684 -5.8924866 7.8924866 -3 5 C-2.67 4.01 -2.34 3.02 -2 2 C-1.34 2 -0.68 2 0 2 C0 1.34 0 0.68 0 0 Z " fill="#4A4C91" transform="translate(170,138)"/>
<path d="M0 0 C1.80330533 3.60661066 2.46599103 6.08393425 3 10 C3.66 10 4.32 10 5 10 C8 13.46153846 8 13.46153846 8 16 C7.34 16 6.68 16 6 16 C6 15.34 6 14.68 6 14 C5.34 14 4.68 14 4 14 C4 13.34 4 12.68 4 12 C2.68 12 1.36 12 0 12 C0 8.04 0 4.08 0 0 Z " fill="#656988" transform="translate(272,384)"/>
<path d="M0 0 C2.64 0 5.28 0 8 0 C8 2.97 8 5.94 8 9 C7.01 8.01 6.02 7.02 5 6 C5 5.34 5 4.68 5 4 C4.01 4 3.02 4 2 4 C2 3.34 2 2.68 2 2 C1.34 2 0.68 2 0 2 C0 1.34 0 0.68 0 0 Z " fill="#626481" transform="translate(326,118)"/>
<path d="M0 0 C0.66 0.66 1.32 1.32 2 2 C0.56665422 3.62866544 -0.87182979 5.25280994 -2.3125 6.875 C-3.51326172 8.23238281 -3.51326172 8.23238281 -4.73828125 9.6171875 C-7 12 -7 12 -10 14 C-10 11 -10 11 -8.57421875 9.31640625 C-7.95160156 8.73761719 -7.32898438 8.15882813 -6.6875 7.5625 C-4.18913888 5.17540192 -1.95209832 2.87073283 0 0 Z " fill="#838386" transform="translate(253,403)"/>
<path d="M0 0 C0.66 0 1.32 0 2 0 C0.57910701 3.15282724 -1.15031851 5.53777964 -3.4375 8.125 C-4.03433594 8.80820313 -4.63117188 9.49140625 -5.24609375 10.1953125 C-7 12 -7 12 -10 14 C-10 12.68 -10 11.36 -10 10 C-9.34 10 -8.68 10 -8 10 C-8 9.34 -8 8.68 -8 8 C-7.34 8 -6.68 8 -6 8 C-6 7.34 -6 6.68 -6 6 C-5.34 6 -4.68 6 -4 6 C-4 5.34 -4 4.68 -4 4 C-3.34 4 -2.68 4 -2 4 C-2 3.34 -2 2.68 -2 2 C-1.34 2 -0.68 2 0 2 C0 1.34 0 0.68 0 0 Z " fill="#454592" transform="translate(462,184)"/>
<path d="M0 0 C1.98 0 3.96 0 6 0 C6 0.66 6 1.32 6 2 C7.32 2 8.64 2 10 2 C10 3.98 10 5.96 10 8 C9.34 8 8.68 8 8 8 C8 7.34 8 6.68 8 6 C7.34 6 6.68 6 6 6 C6 5.34 6 4.68 6 4 C5.34 4 4.68 4 4 4 C4 3.34 4 2.68 4 2 C2.68 2 1.36 2 0 2 C0 1.34 0 0.68 0 0 Z " fill="#68697D" transform="translate(230,116)"/>
<path d="M0 0 C2.64 0 5.28 0 8 0 C8 1.98 8 3.96 8 6 C5.36 5.34 2.72 4.68 0 4 C0 2.68 0 1.36 0 0 Z " fill="#4D5196" transform="translate(108,300)"/>
<path d="M0 0 C3.62493334 -0.05787784 7.24974857 -0.0935542 10.875 -0.125 C11.90753906 -0.14175781 12.94007813 -0.15851563 14.00390625 -0.17578125 C14.99003906 -0.18222656 15.97617188 -0.18867187 16.9921875 -0.1953125 C18.35899658 -0.21102295 18.35899658 -0.21102295 19.75341797 -0.22705078 C22 0 22 0 24 2 C23.13834229 1.98428955 23.13834229 1.98428955 22.25927734 1.96826172 C19.63123023 1.92642901 17.00325346 1.900588 14.375 1.875 C13.47136719 1.85824219 12.56773437 1.84148437 11.63671875 1.82421875 C6.67249848 1.78798357 2.65588093 2.03555854 -2 4 C-2 3.34 -2 2.68 -2 2 C-1.34 2 -0.68 2 0 2 C0 1.34 0 0.68 0 0 Z " fill="#616093" transform="translate(198,110)"/>
<path d="M0 0 C7.26 0 14.52 0 22 0 C22 0.33 22 0.66 22 1 C20.75863281 1.04898438 19.51726562 1.09796875 18.23828125 1.1484375 C16.59633306 1.22349799 14.95440703 1.29904439 13.3125 1.375 C12.49587891 1.4059375 11.67925781 1.436875 10.83789062 1.46875 C6.44463175 1.68218768 3.05058869 2.15130832 -1 4 C-1.99 4 -2.98 4 -4 4 C-4 3.34 -4 2.68 -4 2 C-2.68 2 -1.36 2 0 2 C0 1.34 0 0.68 0 0 Z " fill="#676A8F" transform="translate(292,108)"/>
<path d="M0 0 C0.33 0 0.66 0 1 0 C1 5.28 1 10.56 1 16 C1.99 16 2.98 16 4 16 C4 15.34 4 14.68 4 14 C4.66 14 5.32 14 6 14 C5.67 14.99 5.34 15.98 5 17 C4.34 17 3.68 17 3 17 C3 17.99 3 18.98 3 20 C2.01 20 1.02 20 0 20 C0 13.4 0 6.8 0 0 Z " fill="#5E628A" transform="translate(336,208)"/>
<path d="M0 0 C1.98 0 3.96 0 6 0 C5.319375 0.53625 4.63875 1.0725 3.9375 1.625 C0.56615832 4.35076561 -2.72065543 7.16483178 -6 10 C-6 8.68 -6 7.36 -6 6 C-5.34 6 -4.68 6 -4 6 C-4 5.34 -4 4.68 -4 4 C-3.34 4 -2.68 4 -2 4 C-2 3.34 -2 2.68 -2 2 C-1.34 2 -0.68 2 0 2 C0 1.34 0 0.68 0 0 Z " fill="#666887" transform="translate(190,114)"/>
<path d="M0 0 C2.69199706 0.10885671 5.05732267 0.35326269 7.6875 0.8125 C8.7403418 0.97588867 8.7403418 0.97588867 9.81445312 1.14257812 C11.5453794 1.41340333 13.2730732 1.70474437 15 2 C15 2.33 15 2.66 15 3 C9.06 3 3.12 3 -3 3 C-2.01 2.01 -1.02 1.02 0 0 Z " fill="#77777A" transform="translate(459,92)"/>
<path d="M0 0 C0.66 0 1.32 0 2 0 C2 0.66 2 1.32 2 2 C3.98 2 5.96 2 8 2 C8 3.32 8 4.64 8 6 C9.32 6 10.64 6 12 6 C12 6.66 12 7.32 12 8 C7.15409462 7.55946315 3.51858133 5.25494123 0 2 C0 1.34 0 0.68 0 0 Z " fill="#474990" transform="translate(188,398)"/>
<path d="M0 0 C1.32 0 2.64 0 4 0 C4 1.32 4 2.64 4 4 C4.66 4 5.32 4 6 4 C6 4.66 6 5.32 6 6 C6.66 6 7.32 6 8 6 C8 6.66 8 7.32 8 8 C8.66 8 9.32 8 10 8 C9.67 9.32 9.34 10.64 9 12 C5.7499546 9.83330307 4.8703406 8.3510269 3 5 C2.443125 4.071875 1.88625 3.14375 1.3125 2.1875 C0.879375 1.465625 0.44625 0.74375 0 0 Z " fill="#666789" transform="translate(228,344)"/>
<path d="M0 0 C0.33 0.66 0.66 1.32 1 2 C2.65 2 4.3 2 6 2 C6 2.66 6 3.32 6 4 C6.66 4 7.32 4 8 4 C8 5.98 8 7.96 8 10 C7.34 10 6.68 10 6 10 C5.34 8.02 4.68 6.04 4 4 C2.68 4 1.36 4 0 4 C0 2.68 0 1.36 0 0 Z " fill="#5A5E8D" transform="translate(204,314)"/>
<path d="M0 0 C0.66 0 1.32 0 2 0 C0.23186986 5.62586863 -3.16760844 8.77840563 -8 12 C-8 10.68 -8 9.36 -8 8 C-7.34 8 -6.68 8 -6 8 C-6 7.34 -6 6.68 -6 6 C-5.34 6 -4.68 6 -4 6 C-4 5.34 -4 4.68 -4 4 C-3.34 4 -2.68 4 -2 4 C-2 3.34 -2 2.68 -2 2 C-1.34 2 -0.68 2 0 2 C0 1.34 0 0.68 0 0 Z " fill="#464491" transform="translate(420,230)"/>
<path d="M0 0 C0.33 0 0.66 0 1 0 C1 1.65 1 3.3 1 5 C0.34 5 -0.32 5 -1 5 C-1 5.66 -1 6.32 -1 7 C-2.96147874 8.38938077 -4.96166576 9.7260411 -7 11 C-7 9.68 -7 8.36 -7 7 C-6.34 7 -5.68 7 -5 7 C-5 6.34 -5 5.68 -5 5 C-4.34 5 -3.68 5 -3 5 C-3 4.34 -3 3.68 -3 3 C-2.34 3 -1.68 3 -1 3 C-0.67 2.01 -0.34 1.02 0 0 Z " fill="#525392" transform="translate(489,389)"/>
<path d="M0 0 C5 5.47619048 5 5.47619048 5 8 C5.99 8.33 6.98 8.66 8 9 C8 9.66 8 10.32 8 11 C6.68 10.67 5.36 10.34 4 10 C4 9.01 4 8.02 4 7 C3.34 7 2.68 7 2 7 C2 6.34 2 5.68 2 5 C1.34 5 0.68 5 0 5 C0 4.34 0 3.68 0 3 C-1.32 3 -2.64 3 -4 3 C-4 2.34 -4 1.68 -4 1 C-2 0 -2 0 0 0 Z " fill="#62648F" transform="translate(360,301)"/>
<path d="M0 0 C0.33 1.32 0.66 2.64 1 4 C0.34 4 -0.32 4 -1 4 C-1 4.66 -1 5.32 -1 6 C-1.66 6 -2.32 6 -3 6 C-3 7.98 -3 9.96 -3 12 C-3.66 12 -4.32 12 -5 12 C-6.01397631 8.77371174 -6.20240769 7.43517654 -4.75 4.3125 C-3 2 -3 2 0 0 Z " fill="#666A86" transform="translate(163,244)"/>
<path d="M0 0 C0.66 0 1.32 0 2 0 C2 1.32 2 2.64 2 4 C2.66 4 3.32 4 4 4 C4 4.66 4 5.32 4 6 C4.66 6 5.32 6 6 6 C6 6.66 6 7.32 6 8 C6.66 8 7.32 8 8 8 C8 9.32 8 10.64 8 12 C7.34 12 6.68 12 6 12 C3 8.53846154 3 8.53846154 3 6 C2.34 6 1.68 6 1 6 C0.67 4.02 0.34 2.04 0 0 Z " fill="#434494" transform="translate(274,388)"/>
<path d="M0 0 C1.32 0 2.64 0 4 0 C4.268125 0.9075 4.53625 1.815 4.8125 2.75 C5.90316248 5.73497101 7.06802855 7.54112724 9 10 C9 10.66 9 11.32 9 12 C8.01 12 7.02 12 6 12 C5.71125 11.195625 5.4225 10.39125 5.125 9.5625 C4.26737432 6.8673532 4.26737432 6.8673532 2 6 C2 4.68 2 3.36 2 2 C1.34 2 0.68 2 0 2 C0 1.34 0 0.68 0 0 Z " fill="#5A5D8F" transform="translate(176,384)"/>
<path d="M0 0 C0 1.98 0 3.96 0 6 C-1.32 6 -2.64 6 -4 6 C-4 6.66 -4 7.32 -4 8 C-5.32 8 -6.64 8 -8 8 C-8 6 -8 6 -6.50390625 4.4921875 C-5.86324219 3.95851563 -5.22257812 3.42484375 -4.5625 2.875 C-3.92441406 2.33617187 -3.28632812 1.79734375 -2.62890625 1.2421875 C-1 0 -1 0 0 0 Z " fill="#676989" transform="translate(108,304)"/>
<path d="M0 0 C1.65 0 3.3 0 5 0 C4.06725891 1.12894876 3.12859878 2.25300876 2.1875 3.375 C1.66542969 4.00148438 1.14335937 4.62796875 0.60546875 5.2734375 C-1 7 -1 7 -4 9 C-4 5.44183934 -3.16735584 4.68752124 -1 2 C-0.67 1.34 -0.34 0.68 0 0 Z " fill="#7F7F82" transform="translate(340,409)"/>
<path d="M0 0 C0 2.64 0 5.28 0 8 C-0.66 8 -1.32 8 -2 8 C-2 7.34 -2 6.68 -2 6 C-3.32 6 -4.64 6 -6 6 C-6 4 -6 4 -4.125 1.875 C-2 0 -2 0 0 0 Z " fill="#40419B" transform="translate(416,144)"/>
<path d="M0 0 C0.66 0 1.32 0 2 0 C2 0.66 2 1.32 2 2 C2.66 2 3.32 2 4 2 C4 2.66 4 3.32 4 4 C4.66 4 5.32 4 6 4 C6 5.32 6 6.64 6 8 C4.68 8 3.36 8 2 8 C2 6.68 2 5.36 2 4 C1.34 4 0.68 4 0 4 C0 2.68 0 1.36 0 0 Z " fill="#47489B" transform="translate(234,120)"/>
<path d="M0 0 C2.5 1.3125 2.5 1.3125 5 3 C5 3.99 5 4.98 5 6 C5.66 6 6.32 6 7 6 C7.33 7.32 7.66 8.64 8 10 C7.34 10 6.68 10 6 10 C6 9.34 6 8.68 6 8 C5.34 8 4.68 8 4 8 C4 7.34 4 6.68 4 6 C3.34 6 2.68 6 2 6 C2 5.34 2 4.68 2 4 C1.34 4 0.68 4 0 4 C0 2.68 0 1.36 0 0 Z " fill="#444392" transform="translate(480,118)"/>
<path d="M0 0 C0.66 0.66 1.32 1.32 2 2 C0.39850114 2.67305018 -1.20631029 3.33822227 -2.8125 4 C-3.70582031 4.37125 -4.59914062 4.7425 -5.51953125 5.125 C-8 6 -8 6 -11 6 C-11 5.34 -11 4.68 -11 4 C-9.5459375 3.814375 -9.5459375 3.814375 -8.0625 3.625 C-6.5465625 3.315625 -6.5465625 3.315625 -5 3 C-4.67 2.34 -4.34 1.68 -4 1 C-2.68 1.33 -1.36 1.66 0 2 C0 1.34 0 0.68 0 0 Z " fill="#828486" transform="translate(233,420)"/>
<path d="M0 0 C2 0 2 0 4.4375 2.3125 C5.283125 3.199375 6.12875 4.08625 7 5 C7.598125 5.598125 8.19625 6.19625 8.8125 6.8125 C9.204375 7.204375 9.59625 7.59625 10 8 C8.68 8 7.36 8 6 8 C6 7.34 6 6.68 6 6 C4.68 6 3.36 6 2 6 C2 5.34 2 4.68 2 4 C1.34 4 0.68 4 0 4 C0 2.68 0 1.36 0 0 Z " fill="#696D86" transform="translate(186,398)"/>
<path d="M0 0 C5.80205656 5.64524422 5.80205656 5.64524422 8 9 C8 9.66 8 10.32 8 11 C7.34 11 6.68 11 6 11 C6 10.34 6 9.68 6 9 C5.34 9 4.68 9 4 9 C4 8.34 4 7.68 4 7 C3.34 7 2.68 7 2 7 C2 5.68 2 4.36 2 3 C1.34 3 0.68 3 0 3 C0 2.01 0 1.02 0 0 Z " fill="#64678E" transform="translate(384,333)"/>
<path d="M0 0 C0.66 0 1.32 0 2 0 C6 5.41176471 6 5.41176471 6 8 C6.66 8 7.32 8 8 8 C8 8.66 8 9.32 8 10 C6.68 10 5.36 10 4 10 C4 8.68 4 7.36 4 6 C3.34 6 2.68 6 2 6 C2 5.34 2 4.68 2 4 C1.34 4 0.68 4 0 4 C0 2.68 0 1.36 0 0 Z " fill="#454894" transform="translate(456,320)"/>
<path d="M0 0 C1.32 0 2.64 0 4 0 C4 1.32 4 2.64 4 4 C4.66 4 5.32 4 6 4 C6 4.66 6 5.32 6 6 C6.66 6 7.32 6 8 6 C8 7.32 8 8.64 8 10 C7.34 10 6.68 10 6 10 C2 4.58823529 2 4.58823529 2 2 C1.34 2 0.68 2 0 2 C0 1.34 0 0.68 0 0 Z " fill="#656986" transform="translate(424,278)"/>
<path d="M0 0 C1.32 0 2.64 0 4 0 C4 1.32 4 2.64 4 4 C4.66 4 5.32 4 6 4 C6 4.66 6 5.32 6 6 C6.66 6 7.32 6 8 6 C8 7.32 8 8.64 8 10 C7.34 10 6.68 10 6 10 C2 4.58823529 2 4.58823529 2 2 C1.34 2 0.68 2 0 2 C0 1.34 0 0.68 0 0 Z " fill="#676987" transform="translate(164,262)"/>
<path d="M0 0 C0.66 0 1.32 0 2 0 C2 0.66 2 1.32 2 2 C3.32 2.33 4.64 2.66 6 3 C5.67 3.66 5.34 4.32 5 5 C4.34 5 3.68 5 3 5 C2.67 5.99 2.34 6.98 2 8 C1.34 8 0.68 8 0 8 C0 5.36 0 2.72 0 0 Z " fill="#3F409C" transform="translate(422,222)"/>
<path d="M0 0 C0.33 0.66 0.66 1.32 1 2 C-2.625 7.75 -2.625 7.75 -6 10 C-6 6 -6 6 -4.6875 4.296875 C-4.130625 3.78640625 -3.57375 3.2759375 -3 2.75 C-2.1646875 1.96882812 -2.1646875 1.96882812 -1.3125 1.171875 C-0.879375 0.78515625 -0.44625 0.3984375 0 0 Z " fill="#8F908F" transform="translate(116,173)"/>
<path d="M0 0 C1.75 0.125 1.75 0.125 4 1 C5.40113616 2.95309888 6.73339467 4.95708818 8 7 C9.62351109 8.79394446 9.62351109 8.79394446 11 10 C8 10 8 10 5.95703125 8.06640625 C5.24933594 7.24011719 4.54164062 6.41382813 3.8125 5.5625 C3.09707031 4.73878906 2.38164062 3.91507812 1.64453125 3.06640625 C0 1 0 1 0 0 Z " fill="#848589" transform="translate(13,405)"/>
<path d="M0 0 C0.33 0 0.66 0 1 0 C1.0809723 2.43816585 1.14046972 4.87364384 1.1875 7.3125 C1.22520508 8.34793945 1.22520508 8.34793945 1.26367188 9.40429688 C1.33834499 14.55674183 1.33834499 14.55674183 -0.51171875 16.98046875 C-1.24841797 17.48513672 -1.24841797 17.48513672 -2 18 C-2 16.02 -2 14.04 -2 12 C-1.34 12 -0.68 12 0 12 C0 8.04 0 4.08 0 0 Z " fill="#44448F" transform="translate(490,372)"/>
<path d="M0 0 C0.66 0 1.32 0 2 0 C2 1.32 2 2.64 2 4 C1.34 4 0.68 4 0 4 C0 4.66 0 5.32 0 6 C-0.66 6 -1.32 6 -2 6 C-2 6.66 -2 7.32 -2 8 C-3.32 7.67 -4.64 7.34 -6 7 C-4.71937515 5.2925002 -3.38232443 3.62626404 -2 2 C-1.34 2 -0.68 2 0 2 C0 1.34 0 0.68 0 0 Z " fill="#484895" transform="translate(118,196)"/>
<path d="M0 0 C1.32 0.33 2.64 0.66 4 1 C3.2884375 1.61875 3.2884375 1.61875 2.5625 2.25 C0.83733482 4.182185 0.43415125 5.48192275 0 8 C-1.32 8 -2.64 8 -4 8 C-4 7.34 -4 6.68 -4 6 C-3.34 6 -2.68 6 -2 6 C-2 4.68 -2 3.36 -2 2 C-1.34 2 -0.68 2 0 2 C0 1.34 0 0.68 0 0 Z " fill="#5E618D" transform="translate(396,160)"/>
<path d="M0 0 C0.66 0 1.32 0 2 0 C2 0.66 2 1.32 2 2 C2.66 2 3.32 2 4 2 C4 2.66 4 3.32 4 4 C4.66 4 5.32 4 6 4 C6 4.66 6 5.32 6 6 C6.66 6 7.32 6 8 6 C7.67 7.32 7.34 8.64 7 10 C6.401875 9.236875 5.80375 8.47375 5.1875 7.6875 C3.15995888 5.08664741 3.15995888 5.08664741 1.25 3.3125 C0 2 0 2 0 0 Z " fill="#404390" transform="translate(416,372)"/>
<path d="M0 0 C1.32 0.33 2.64 0.66 4 1 C3.04882866 2.1725131 2.08882991 3.33787015 1.125 4.5 C0.59132812 5.1496875 0.05765625 5.799375 -0.4921875 6.46875 C-0.98976562 6.9740625 -1.48734375 7.479375 -2 8 C-2.66 8 -3.32 8 -4 8 C-4 6.68 -4 5.36 -4 4 C-3.34 4 -2.68 4 -2 4 C-2 3.34 -2 2.68 -2 2 C-1.34 2 -0.68 2 0 2 C0 1.34 0 0.68 0 0 Z " fill="#434391" transform="translate(206,192)"/>
<path d="M0 0 C1.32 0.33 2.64 0.66 4 1 C1.42215154 3.64752004 -0.91648098 5.94432065 -4 8 C-4 6.68 -4 5.36 -4 4 C-3.34 4 -2.68 4 -2 4 C-2 3.34 -2 2.68 -2 2 C-1.34 2 -0.68 2 0 2 C0 1.34 0 0.68 0 0 Z " fill="#65688A" transform="translate(128,182)"/>
<path d="M0 0 C-2.12780579 2.34058637 -4.11562221 3.70700306 -7 5 C-7 3.68 -7 2.36 -7 1 C-3.375 -1.125 -3.375 -1.125 0 0 Z M-9 6 C-8.67 6.66 -8.34 7.32 -8 8 C-8.66 7.67 -9.32 7.34 -10 7 C-9.67 6.67 -9.34 6.34 -9 6 Z " fill="#7B7C7D" transform="translate(415,123)"/>
<path d="M0 0 C1.32 0 2.64 0 4 0 C4 1.32 4 2.64 4 4 C4.66 4 5.32 4 6 4 C6 4.66 6 5.32 6 6 C4.68 6 3.36 6 2 6 C2 5.34 2 4.68 2 4 C1.34 4 0.68 4 0 4 C0 2.68 0 1.36 0 0 Z " fill="#56588E" transform="translate(432,394)"/>
<path d="M0 0 C1.32 0 2.64 0 4 0 C4 1.32 4 2.64 4 4 C4.66 4 5.32 4 6 4 C6 4.66 6 5.32 6 6 C6.66 6 7.32 6 8 6 C7.67 7.32 7.34 8.64 7 10 C2 4.25 2 4.25 2 2 C1.34 2 0.68 2 0 2 C0 1.34 0 0.68 0 0 Z " fill="#444595" transform="translate(144,342)"/>
<path d="M0 0 C0.66 0 1.32 0 2 0 C2 0.66 2 1.32 2 2 C2.66 2 3.32 2 4 2 C4 2.66 4 3.32 4 4 C4.66 4 5.32 4 6 4 C6 5.32 6 6.64 6 8 C5.34 8 4.68 8 4 8 C4 7.34 4 6.68 4 6 C3.34 6 2.68 6 2 6 C2 5.34 2 4.68 2 4 C1.34 4 0.68 4 0 4 C0 2.68 0 1.36 0 0 Z " fill="#5B5B89" transform="translate(368,312)"/>
<path d="M0 0 C1.2065625 0.0309375 1.2065625 0.0309375 2.4375 0.0625 C2.4375 0.7225 2.4375 1.3825 2.4375 2.0625 C1.7775 2.0625 1.1175 2.0625 0.4375 2.0625 C-0.2225 3.3825 -0.8825 4.7025 -1.5625 6.0625 C-2.2225 6.0625 -2.8825 6.0625 -3.5625 6.0625 C-3.605221 4.39638095 -3.60313832 2.72867115 -3.5625 1.0625 C-2.5625 0.0625 -2.5625 0.0625 0 0 Z " fill="#3E409A" transform="translate(349.5625,305.9375)"/>
<path d="M0 0 C0.66 0 1.32 0 2 0 C2 0.66 2 1.32 2 2 C2.66 2 3.32 2 4 2 C4 2.66 4 3.32 4 4 C4.66 4 5.32 4 6 4 C6 4.66 6 5.32 6 6 C6.66 6 7.32 6 8 6 C7.67 7.32 7.34 8.64 7 10 C5.82739389 8.71372289 4.6620717 7.42080217 3.5 6.125 C2.8503125 5.40570313 2.200625 4.68640625 1.53125 3.9453125 C0 2 0 2 0 0 Z " fill="#676988" transform="translate(188,292)"/>
<path d="M0 0 C1.32 0.33 2.64 0.66 4 1 C1.69 3.31 -0.62 5.62 -3 8 C-3.33 6.68 -3.66 5.36 -4 4 C-3.34 4 -2.68 4 -2 4 C-2 3.34 -2 2.68 -2 2 C-1.34 2 -0.68 2 0 2 C0 1.34 0 0.68 0 0 Z " fill="#434295" transform="translate(472,172)"/>
<path d="M0 0 C0.33 0.99 0.66 1.98 1 3 C0.34 3 -0.32 3 -1 3 C-1 3.66 -1 4.32 -1 5 C-1.66 5 -2.32 5 -3 5 C-3 6.32 -3 7.64 -3 9 C-4.32 9 -5.64 9 -7 9 C-5.44499019 5.18315774 -2.96404505 2.80804268 0 0 Z " fill="#404294" transform="translate(423,135)"/>
<path d="M0 0 C0.33 0.99 0.66 1.98 1 3 C-0.65 3.33 -2.3 3.66 -4 4 C-4 4.66 -4 5.32 -4 6 C-4.66 6 -5.32 6 -6 6 C-6 6.66 -6 7.32 -6 8 C-6.66 8 -7.32 8 -8 8 C-6.48291727 4.46014029 -4.24676932 0 0 0 Z " fill="#403E97" transform="translate(288,114)"/>
<path d="M0 0 C-0.639375 0.28875 -1.27875 0.5775 -1.9375 0.875 C-4.15206079 1.82823451 -4.15206079 1.82823451 -5 4 C-6.65 3.67 -8.3 3.34 -10 3 C-10 2.34 -10 1.68 -10 1 C-3.71428571 -1.42857143 -3.71428571 -1.42857143 0 0 Z " fill="#7C7C7D" transform="translate(452,94)"/>
<path d="M0 0 C0.66 0.33 1.32 0.66 2 1 C-0.31 3.64 -2.62 6.28 -5 9 C-5.66 8.34 -6.32 7.68 -7 7 C-4.69 4.69 -2.38 2.38 0 0 Z " fill="#AAAAAD" transform="translate(498,407)"/>
<path d="M0 0 C1.66666667 1.66666667 3.33333333 3.33333333 5 5 C5.8971875 5.8353125 5.8971875 5.8353125 6.8125 6.6875 C8 8 8 8 8 10 C7.34 10 6.68 10 6 10 C6 9.34 6 8.68 6 8 C5.34 8 4.68 8 4 8 C4 7.34 4 6.68 4 6 C3.34 6 2.68 6 2 6 C2 5.34 2 4.68 2 4 C1.34 4 0.68 4 0 4 C0 2.68 0 1.36 0 0 Z " fill="#424393" transform="translate(476,346)"/>
<path d="M0 0 C2.04119788 1.61594832 4.04072937 3.2856382 6 5 C6 5.66 6 6.32 6 7 C6.66 7 7.32 7 8 7 C8 7.66 8 8.32 8 9 C6.68 9 5.36 9 4 9 C4 7.68 4 6.36 4 5 C3.34 5 2.68 5 2 5 C2 4.34 2 3.68 2 3 C1.34 3 0.68 3 0 3 C0 2.01 0 1.02 0 0 Z " fill="#454790" transform="translate(464,331)"/>
<path d="M0 0 C1.32 0.33 2.64 0.66 4 1 C4 1.66 4 2.32 4 3 C4.66 3 5.32 3 6 3 C6 3.66 6 4.32 6 5 C6.66 5 7.32 5 8 5 C8 6.32 8 7.64 8 9 C7.34 9 6.68 9 6 9 C5.67 7.68 5.34 6.36 5 5 C4.34 5 3.68 5 3 5 C1.375 2.5 1.375 2.5 0 0 Z " fill="#64648B" transform="translate(432,289)"/>
<path d="M0 0 C0.33 0.99 0.66 1.98 1 3 C0.34 3 -0.32 3 -1 3 C-1 4.32 -1 5.64 -1 7 C-2.32 7 -3.64 7 -5 7 C-5 7.66 -5 8.32 -5 9 C-5.66 9 -6.32 9 -7 9 C-6.67 8.01 -6.34 7.02 -6 6 C-5.34 6 -4.68 6 -4 6 C-3.71125 5.38125 -3.4225 4.7625 -3.125 4.125 C-2 2 -2 2 0 0 Z " fill="#444691" transform="translate(111,205)"/>
<path d="M0 0 C0.33 0.99 0.66 1.98 1 3 C0.34 3 -0.32 3 -1 3 C-1 3.66 -1 4.32 -1 5 C-1.66 5 -2.32 5 -3 5 C-3 6.32 -3 7.64 -3 9 C-4.32 9 -5.64 9 -7 9 C-7 8.34 -7 7.68 -7 7 C-6.34 7 -5.68 7 -5 7 C-4.731875 6.401875 -4.46375 5.80375 -4.1875 5.1875 C-3.01506533 3.02775192 -1.80630718 1.64209744 0 0 Z " fill="#646589" transform="translate(453,197)"/>
<path d="M0 0 C0.66 0.33 1.32 0.66 2 1 C0.89718873 2.27200971 -0.20730769 3.54255853 -1.3125 4.8125 C-2.23482422 5.87404297 -2.23482422 5.87404297 -3.17578125 6.95703125 C-4.73334335 8.70136739 -6.32658875 10.36778041 -8 12 C-6.64994369 6.32976351 -4.1842771 3.82042691 0 0 Z " fill="#636367" transform="translate(133,155)"/>
<path d="M0 0 C1.32 0.33 2.64 0.66 4 1 C1.69 3.64 -0.62 6.28 -3 9 C-3.33 8.01 -3.66 7.02 -4 6 C-3.34 6 -2.68 6 -2 6 C-2 4.68 -2 3.36 -2 2 C-1.34 2 -0.68 2 0 2 C0 1.34 0 0.68 0 0 Z " fill="#676989" transform="translate(430,122)"/>
<path d="M0 0 C-0.66 0 -1.32 0 -2 0 C-2 0.66 -2 1.32 -2 2 C-2.66 2 -3.32 2 -4 2 C-4 2.66 -4 3.32 -4 4 C-6.64 4 -9.28 4 -12 4 C-4 -1.33333333 -4 -1.33333333 0 0 Z " fill="#63638F" transform="translate(324,406)"/>
<path d="M0 0 C1.27875 0.28875 2.5575 0.5775 3.875 0.875 C4.95394531 1.11863281 4.95394531 1.11863281 6.0546875 1.3671875 C8 2 8 2 10 4 C7.36 4 4.72 4 2 4 C2 3.34 2 2.68 2 2 C1.34 2 0.68 2 0 2 C0 1.34 0 0.68 0 0 Z " fill="#65678C" transform="translate(38,406)"/>
<path d="M0 0 C0.66 0.66 1.32 1.32 2 2 C0.35 4.97 -1.3 7.94 -3 11 C-3.66 11 -4.32 11 -5 11 C-3.55049545 7.2089881 -1.84827434 3.6125362 0 0 Z " fill="#AEAEB2" transform="translate(505,395)"/>
<path d="M0 0 C0.66 0.33 1.32 0.66 2 1 C1.67 3.97 1.34 6.94 1 10 C0.34 9.67 -0.32 9.34 -1 9 C-1.09765625 2.84765625 -1.09765625 2.84765625 -1 1 C-0.67 0.67 -0.34 0.34 0 0 Z " fill="#969699" transform="translate(105,380)"/>
<path d="M0 0 C0.66 0 1.32 0 2 0 C2 0.66 2 1.32 2 2 C2.66 2 3.32 2 4 2 C4.66 3.98 5.32 5.96 6 8 C5.34 8 4.68 8 4 8 C4 7.34 4 6.68 4 6 C3.34 6 2.68 6 2 6 C2 5.34 2 4.68 2 4 C1.34 4 0.68 4 0 4 C0 2.68 0 1.36 0 0 Z " fill="#5A5D8E" transform="translate(170,376)"/>
<path d="M0 0 C0.33 0.66 0.66 1.32 1 2 C1.99 2.33 2.98 2.66 4 3 C8 7.45714286 8 7.45714286 8 10 C6 10 6 10 3.875 8.125 C2 6 2 6 2 4 C1.34 4 0.68 4 0 4 C0 2.68 0 1.36 0 0 Z " fill="#5F648E" transform="translate(416,374)"/>
<path d="M0 0 C2 1.375 2 1.375 4 3 C4 3.66 4 4.32 4 5 C4.66 5 5.32 5 6 5 C6 5.66 6 6.32 6 7 C4.68 7 3.36 7 2 7 C2 6.34 2 5.68 2 5 C1.34 5 0.68 5 0 5 C0 3.35 0 1.7 0 0 Z " fill="#454696" transform="translate(220,335)"/>
<path d="M0 0 C0.66 0 1.32 0 2 0 C3.78305524 2.63892176 4.99059621 4.97178863 6 8 C5.34 8 4.68 8 4 8 C4 7.34 4 6.68 4 6 C2.68 6 1.36 6 0 6 C0 4.02 0 2.04 0 0 Z " fill="#696985" transform="translate(126,320)"/>
<path d="M0 0 C0 3 0 3 -2 6 C-2.66 6 -3.32 6 -4 6 C-4 7.32 -4 8.64 -4 10 C-5.32 10 -6.64 10 -8 10 C-8 8 -8 8 -6.625 6.375 C-5 5 -5 5 -3 5 C-2.690625 4.360625 -2.38125 3.72125 -2.0625 3.0625 C-1 1 -1 1 0 0 Z " fill="#5F638A" transform="translate(430,222)"/>
<path d="M0 0 C1.32 0 2.64 0 4 0 C4 2 4 2 2.25 4.1875 C1.5075 4.785625 0.765 5.38375 0 6 C-2.25 5.75 -2.25 5.75 -4 5 C-3.34 5 -2.68 5 -2 5 C-2 4.01 -2 3.02 -2 2 C-1.34 2 -0.68 2 0 2 C0 1.34 0 0.68 0 0 Z " fill="#50508F" transform="translate(230,400)"/>
<path d="M0 0 C1.37562854 1.28965176 2.70766393 2.62689293 4 4 C4 4.66 4 5.32 4 6 C4.66 6 5.32 6 6 6 C6 6.66 6 7.32 6 8 C4.68 8 3.36 8 2 8 C2 6.68 2 5.36 2 4 C1.34 4 0.68 4 0 4 C0 2.68 0 1.36 0 0 Z " fill="#656687" transform="translate(396,348)"/>
<path d="M0 0 C1.32 0 2.64 0 4 0 C4 1.32 4 2.64 4 4 C4.66 4 5.32 4 6 4 C5.67 5.32 5.34 6.64 5 8 C2 4.25 2 4.25 2 2 C1.34 2 0.68 2 0 2 C0 1.34 0 0.68 0 0 Z " fill="#696C84" transform="translate(456,318)"/>
<path d="M0 0 C1.32 0.33 2.64 0.66 4 1 C3.814375 1.78375 3.62875 2.5675 3.4375 3.375 C2.74037734 5.97089775 2.74037734 5.97089775 4 8 C2.68 8 1.36 8 0 8 C0 5.36 0 2.72 0 0 Z " fill="#3F4299" transform="translate(402,248)"/>
<path d="M0 0 C0.66 0 1.32 0 2 0 C6 5.41176471 6 5.41176471 6 8 C5.34 8 4.68 8 4 8 C4 7.34 4 6.68 4 6 C3.34 6 2.68 6 2 6 C2 5.34 2 4.68 2 4 C1.34 4 0.68 4 0 4 C0 2.68 0 1.36 0 0 Z " fill="#656885" transform="translate(132,328)"/>
<path d="M0 0 C0.66 0 1.32 0 2 0 C2 1.32 2 2.64 2 4 C1.34 4 0.68 4 0 4 C0 4.66 0 5.32 0 6 C-1.32 6 -2.64 6 -4 6 C-4 5.34 -4 4.68 -4 4 C-3.34 4 -2.68 4 -2 4 C-2 3.34 -2 2.68 -2 2 C-1.34 2 -0.68 2 0 2 C0 1.34 0 0.68 0 0 Z " fill="#636583" transform="translate(184,220)"/>
<path d="M0 0 C0.66 0 1.32 0 2 0 C2 1.32 2 2.64 2 4 C1.34 4 0.68 4 0 4 C0 4.66 0 5.32 0 6 C-1.32 6 -2.64 6 -4 6 C-4 5.34 -4 4.68 -4 4 C-3.34 4 -2.68 4 -2 4 C-2 3.34 -2 2.68 -2 2 C-1.34 2 -0.68 2 0 2 C0 1.34 0 0.68 0 0 Z " fill="#606486" transform="translate(200,202)"/>
<path d="M0 0 C0.66 1.32 1.32 2.64 2 4 C-1 6 -1 6 -3.1875 5.625 C-3.785625 5.41875 -4.38375 5.2125 -5 5 C-5 4.34 -5 3.68 -5 3 C-2.5 1.375 -2.5 1.375 0 0 Z " fill="#6B6D7C" transform="translate(207,197)"/>
<path d="M0 0 C0 0.66 0 1.32 0 2 C-1.2065625 2.4021875 -1.2065625 2.4021875 -2.4375 2.8125 C-3.283125 3.204375 -4.12875 3.59625 -5 4 C-5.33 4.99 -5.66 5.98 -6 7 C-6.99 6.34 -7.98 5.68 -9 5 C-7.87926138 4.16094435 -6.75325453 3.32892169 -5.625 2.5 C-4.99851562 2.0359375 -4.37203125 1.571875 -3.7265625 1.09375 C-2 0 -2 0 0 0 Z " fill="#828385" transform="translate(280,98)"/>
<path d="M0 0 C1.32 0 2.64 0 4 0 C4 0.66 4 1.32 4 2 C-1.41176471 6 -1.41176471 6 -4 6 C-4 5.34 -4 4.68 -4 4 C-3.34 4 -2.68 4 -2 4 C-2 3.34 -2 2.68 -2 2 C-1.34 2 -0.68 2 0 2 C0 1.34 0 0.68 0 0 Z " fill="#454394" transform="translate(76,400)"/>
<path d="M0 0 C3.72940389 1.24313463 4.84656811 2.76985216 7 6 C6.67 6.99 6.34 7.98 6 9 C5.38125 8.195625 4.7625 7.39125 4.125 6.5625 C2.25835959 3.96125481 2.25835959 3.96125481 0 3 C0 2.01 0 1.02 0 0 Z " fill="#777779" transform="translate(234,325)"/>
<path d="M0 0 C0.66 0 1.32 0 2 0 C2 1.32 2 2.64 2 4 C1.34 4 0.68 4 0 4 C0 4.66 0 5.32 0 6 C-1.32 5.67 -2.64 5.34 -4 5 C-3.34 4.01 -2.68 3.02 -2 2 C-1.34 2 -0.68 2 0 2 C0 1.34 0 0.68 0 0 Z " fill="#666784" transform="translate(344,314)"/>
<path d="M0 0 C0 1.32 0 2.64 0 4 C-0.66 4 -1.32 4 -2 4 C-2 4.66 -2 5.32 -2 6 C-3.32 6 -4.64 6 -6 6 C-6 4 -6 4 -4.125 1.875 C-2 0 -2 0 0 0 Z " fill="#64668A" transform="translate(352,308)"/>
<path d="M0 0 C1 1 2 2 3 3 C3.8353125 3.7734375 3.8353125 3.7734375 4.6875 4.5625 C6 6 6 6 6 8 C4.68 8 3.36 8 2 8 C2 6.68 2 5.36 2 4 C1.34 4 0.68 4 0 4 C0 2.68 0 1.36 0 0 Z " fill="#444596" transform="translate(442,302)"/>
<path d="M0 0 C1.485 0.99 1.485 0.99 3 2 C3 2.66 3 3.32 3 4 C3.66 4 4.32 4 5 4 C5.33 5.32 5.66 6.64 6 8 C5.34 8 4.68 8 4 8 C4 7.34 4 6.68 4 6 C3.34 6 2.68 6 2 6 C2 5.34 2 4.68 2 4 C1.34 4 0.68 4 0 4 C0 2.68 0 1.36 0 0 Z " fill="#444593" transform="translate(410,262)"/>
<path d="M0 0 C0.33 1.32 0.66 2.64 1 4 C0.34 4 -0.32 4 -1 4 C-1 4.66 -1 5.32 -1 6 C-2.32 6 -3.64 6 -5 6 C-5 5.34 -5 4.68 -5 4 C-3.37373596 2.61767557 -1.7074998 1.28062485 0 0 Z " fill="#444793" transform="translate(93,224)"/>
<path d="M0 0 C0 4.31618166 -2.13270348 5.92789659 -5 9 C-5.66 9 -6.32 9 -7 9 C-5.44499019 5.18315774 -2.96404505 2.80804268 0 0 Z " fill="#909093" transform="translate(497,173)"/>
<path d="M0 0 C0.66 0 1.32 0 2 0 C2 1.32 2 2.64 2 4 C1.34 4 0.68 4 0 4 C0 4.66 0 5.32 0 6 C-1.32 5.67 -2.64 5.34 -4 5 C-3.34 4.01 -2.68 3.02 -2 2 C-1.34 2 -0.68 2 0 2 C0 1.34 0 0.68 0 0 Z " fill="#4A4894" transform="translate(404,154)"/>
<path d="M0 0 C2.64 0 5.28 0 8 0 C4.71536341 2.18975773 1.79303725 2.99806563 -2 4 C-2 3.34 -2 2.68 -2 2 C-1.34 2 -0.68 2 0 2 C0 1.34 0 0.68 0 0 Z " fill="#616290" transform="translate(40,110)"/>
<path d="M0 0 C0.66 0 1.32 0 2 0 C3.38938077 1.96147874 4.7260411 3.96166576 6 6 C4.68 6 3.36 6 2 6 C2 5.34 2 4.68 2 4 C1.34 4 0.68 4 0 4 C0 2.68 0 1.36 0 0 Z " fill="#656888" transform="translate(280,400)"/>
<path d="M0 0 C0.66 0 1.32 0 2 0 C2 0.66 2 1.32 2 2 C3.32 2 4.64 2 6 2 C6 3.32 6 4.64 6 6 C3.37812506 4.95125002 2.20628639 4.35068687 0.75 1.875 C0.5025 1.25625 0.255 0.6375 0 0 Z " fill="#454594" transform="translate(282,400)"/>
<path d="M0 0 C0.66 0 1.32 0 2 0 C3.38938077 1.96147874 4.7260411 3.96166576 6 6 C4.68 6 3.36 6 2 6 C2 5.34 2 4.68 2 4 C1.34 4 0.68 4 0 4 C0 2.68 0 1.36 0 0 Z " fill="#65678A" transform="translate(138,336)"/>
<path d="M0 0 C1.70884005 1.62339805 3.37446717 3.29319053 5 5 C5 5.66 5 6.32 5 7 C3.68 7 2.36 7 1 7 C0.31292445 4.50935112 0 2.62113708 0 0 Z " fill="#828284" transform="translate(192,270)"/>
<path d="M0 0 C1.32 0 2.64 0 4 0 C4 0.66 4 1.32 4 2 C2.03852126 3.38938077 0.03833424 4.7260411 -2 6 C-2 4.68 -2 3.36 -2 2 C-1.34 2 -0.68 2 0 2 C0 1.34 0 0.68 0 0 Z " fill="#666B86" transform="translate(374,184)"/>
<path d="M0 0 C0 0.99 0 1.98 0 3 C-2.31 4.32 -4.62 5.64 -7 7 C-5.54744301 3.17053157 -3.57104439 1.87949705 0 0 Z " fill="#8F8F90" transform="translate(373,165)"/>
<path d="M0 0 C0.33 0 0.66 0 1 0 C1 2.64 1 5.28 1 8 C0.34 8 -0.32 8 -1 8 C-1 8.66 -1 9.32 -1 10 C-1.66 10 -2.32 10 -3 10 C-2.01 6.7 -1.02 3.4 0 0 Z " fill="#63668B" transform="translate(243,148)"/>
<path d="M0 0 C0.66 0 1.32 0 2 0 C2 1.32 2 2.64 2 4 C1.34 4 0.68 4 0 4 C0 4.66 0 5.32 0 6 C-1.32 5.67 -2.64 5.34 -4 5 C-2.71937515 3.2925002 -1.38232443 1.62626404 0 0 Z " fill="#444591" transform="translate(180,128)"/>
<path d="M0 0 C0.99 0 1.98 0 3 0 C3 2 3 2 1.6875 3.625 C0 5 0 5 -3 5 C-1.125 1.125 -1.125 1.125 0 0 Z " fill="#7F8383" transform="translate(156,129)"/>
<path d="M0 0 C2.64 0 5.28 0 8 0 C8 0.66 8 1.32 8 2 C8.66 2 9.32 2 10 2 C10 2.66 10 3.32 10 4 C6.7 3.01 3.4 2.02 0 1 C0 0.67 0 0.34 0 0 Z " fill="#5F6190" transform="translate(64,110)"/>
<path d="M0 0 C-1.13474948 3.40424844 -1.96811304 4.21653709 -5 6 C-5.99 5.67 -6.98 5.34 -8 5 C-2.25 0 -2.25 0 0 0 Z " fill="#909094" transform="translate(29,100)"/>
<path d="M0 0 C0.66 0.66 1.32 1.32 2 2 C0.68 3.32 -0.64 4.64 -2 6 C-2.99 5.67 -3.98 5.34 -5 5 C-3.35 3.35 -1.7 1.7 0 0 Z " fill="#868889" transform="translate(97,405)"/>
<path d="M0 0 C1.32 0.33 2.64 0.66 4 1 C0.93882432 3.62386487 0.26826873 4 -4 4 C-4 3.34 -4 2.68 -4 2 C-2.68 2 -1.36 2 0 2 C0 1.34 0 0.68 0 0 Z " fill="#434398" transform="translate(474,402)"/>
<path d="M0 0 C1.32 0 2.64 0 4 0 C4 0.66 4 1.32 4 2 C4.66 2 5.32 2 6 2 C5.67 3.32 5.34 4.64 5 6 C3.35 4.02 1.7 2.04 0 0 Z " fill="#63678B" transform="translate(464,330)"/>
<path d="M0 0 C1.32 0.33 2.64 0.66 4 1 C1.03 3.475 1.03 3.475 -2 6 C-2 4.68 -2 3.36 -2 2 C-1.34 2 -0.68 2 0 2 C0 1.34 0 0.68 0 0 Z " fill="#45478E" transform="translate(434,214)"/>
<path d="M0 0 C1.65 0.33 3.3 0.66 5 1 C3.515 2.485 3.515 2.485 2 4 C1.01 3.67 0.02 3.34 -1 3 C-0.67 2.01 -0.34 1.02 0 0 Z " fill="#8D8D8E" transform="translate(462,208)"/>
<path d="M0 0 C1.32 0.33 2.64 0.66 4 1 C1.03 3.475 1.03 3.475 -2 6 C-2 4.68 -2 3.36 -2 2 C-1.34 2 -0.68 2 0 2 C0 1.34 0 0.68 0 0 Z " fill="#636387" transform="translate(380,178)"/>
<path d="M0 0 C0.66 0.33 1.32 0.66 2 1 C1 4 1 4 -2.0625 5.6875 C-3.031875 6.120625 -4.00125 6.55375 -5 7 C-3.70700306 4.11562221 -2.34058637 2.12780579 0 0 Z " fill="#5F5F62" transform="translate(122,167)"/>
<path d="M0 0 C0.66 0 1.32 0 2 0 C2 1.32 2 2.64 2 4 C0.68 4 -0.64 4 -2 4 C-2 4.66 -2 5.32 -2 6 C-2.66 6 -3.32 6 -4 6 C-3.67 5.01 -3.34 4.02 -3 3 C-2.34 3 -1.68 3 -1 3 C-0.67 2.01 -0.34 1.02 0 0 Z " fill="#666788" transform="translate(238,160)"/>
<path d="M0 0 C1.32 0.33 2.64 0.66 4 1 C1.03 3.475 1.03 3.475 -2 6 C-2 4.68 -2 3.36 -2 2 C-1.34 2 -0.68 2 0 2 C0 1.34 0 0.68 0 0 Z " fill="#696A8A" transform="translate(164,142)"/>
<path d="M0 0 C0.66 0.33 1.32 0.66 2 1 C0.02 3.97 0.02 3.97 -2 7 C-3.32 6.67 -4.64 6.34 -6 6 C-4.02 4.02 -2.04 2.04 0 0 Z " fill="#626669" transform="translate(406,127)"/>
<path d="M0 0 C4.875 4.625 4.875 4.625 6 8 C5.34 8 4.68 8 4 8 C4 7.34 4 6.68 4 6 C3.34 6 2.68 6 2 6 C2 5.34 2 4.68 2 4 C1.34 4 0.68 4 0 4 C0 2.68 0 1.36 0 0 Z " fill="#4A4A8C" transform="translate(80,120)"/>
<path d="M0 0 C1.32 0.33 2.64 0.66 4 1 C1.03 3.475 1.03 3.475 -2 6 C-2 4.68 -2 3.36 -2 2 C-1.34 2 -0.68 2 0 2 C0 1.34 0 0.68 0 0 Z " fill="#676888" transform="translate(436,116)"/>
<path d="M0 0 C1.98 0.66 3.96 1.32 6 2 C6 2.66 6 3.32 6 4 C4.02 4 2.04 4 0 4 C0 2.68 0 1.36 0 0 Z " fill="#424195" transform="translate(320,114)"/>
</svg>
